<svg xmlns="http://www.w3.org/2000/svg" viewBox="0 0 111 18.2"><path fill="#ffffff" fill-rule="evenodd" d="M2.2 0.5 L1.3 1.2 L1.3 16.2 L2 17.1 L5.6 17.1 L6.1 16.6 L6.4 7.9 L7.4 8.3 L16.8 17.1 L20.8 17.3 L21.9 16.6 L21.9 1.4 L21.2 0.7 L18 0.5 L16.9 1.2 L16.4 10.1 L6.4 0.9ZM32.8 0.7 L31.7 1.8 L22.9 16.6 L23.8 17.3 L27.6 17.3 L28.4 16.9 L35.4 6.1 L42.8 17.1 L47.4 17.1 L47.7 16 L38.3 1ZM49.8 0.7 L48.9 1.6 L48.9 4.6 L49.4 5.1 L62.2 5.3 L62.7 6 L62.7 9.8 L62 10.5 L49.4 10.7 L48.9 11.2 L49.2 16.9 L50 17.3 L53.4 17.1 L54.4 15.1 L64.8 15.1 L66.9 13.6 L67.7 11.6 L67.7 4.2 L66.9 2.2 L65.6 1.1 L64.8 0.7ZM71.2 0.7 L68.7 3.2 L68.7 14.8 L70.4 16.9 L71.8 17.3 L85.8 17.3 L88.1 15.8 L88.9 14.6 L88.9 13.2 L88.4 12.7 L73.4 12.7 L73.1 12.2 L73.4 5.3 L88.4 5.3 L89.1 4.2 L88.9 3.4 L86.8 0.9ZM92.8 0.7 L90.7 2 L89.7 4.2 L89.7 14 L91.8 16.9 L92.8 17.3 L107 17.3 L108.4 16.9 L109.7 15.6 L110.1 14.8 L110.1 3.2 L108.6 1.5 L107.4 0.7ZM95.2 5.3 L94.5 6.2 L94.8 12.5 L105.5 12.6 L105.7 6.4 L105.2 5.3Z"></path></svg>