<svg width="20" height="20" viewBox="0 0 20 20" fill="none" xmlns="http://www.w3.org/2000/svg">
<path d="M5.72187 4.29365C5.33124 3.90303 4.69687 3.90303 4.30624 4.29365C3.91562 4.68428 3.91562 5.31865 4.30624 5.70928L8.59999 9.9999L4.30937 14.2937C3.91874 14.6843 3.91874 15.3187 4.30937 15.7093C4.69999 16.0999 5.33437 16.0999 5.72499 15.7093L10.0156 11.4155L14.3094 15.7062C14.7 16.0968 15.3344 16.0968 15.725 15.7062C16.1156 15.3155 16.1156 14.6812 15.725 14.2905L11.4312 9.9999L15.7219 5.70615C16.1125 5.31553 16.1125 4.68115 15.7219 4.29053C15.3312 3.8999 14.6969 3.8999 14.3062 4.29053L10.0156 8.58428L5.72187 4.29365Z" fill="black"/>
</svg>
