<svg width="24" height="24" viewBox="0 0 24 24" fill="none" xmlns="http://www.w3.org/2000/svg">
<g clip-path="url(#clip0_285_5324)">
<path fill-rule="evenodd" clip-rule="evenodd" d="M5.94001 5.9399C6.22126 5.659 6.60251 5.50122 7.00001 5.50122C7.39751 5.50122 7.77876 5.659 8.06001 5.9399L13.06 10.9399C13.3409 11.2212 13.4987 11.6024 13.4987 11.9999C13.4987 12.3974 13.3409 12.7787 13.06 13.0599L8.06001 18.0599C7.77566 18.3249 7.39957 18.4691 7.01096 18.4623C6.62236 18.4554 6.25159 18.298 5.97677 18.0231C5.70194 17.7483 5.54452 17.3775 5.53766 16.9889C5.5308 16.6003 5.67505 16.2243 5.94001 15.9399L9.87801 11.9999L5.93801 8.0599C5.65711 7.77865 5.49933 7.3974 5.49933 6.9999C5.49933 6.6024 5.65711 6.22115 5.93801 5.9399H5.94001ZM11.94 5.9399C12.2213 5.659 12.6025 5.50122 13 5.50122C13.3975 5.50122 13.7788 5.659 14.06 5.9399L19.06 10.9399C19.3409 11.2212 19.4987 11.6024 19.4987 11.9999C19.4987 12.3974 19.3409 12.7787 19.06 13.0599L14.06 18.0599C13.7757 18.3249 13.3996 18.4691 13.011 18.4623C12.6224 18.4554 12.2516 18.298 11.9768 18.0231C11.7019 17.7483 11.5445 17.3775 11.5377 16.9889C11.5308 16.6003 11.675 16.2243 11.94 15.9399L15.878 11.9999L11.938 8.0599C11.6571 7.77865 11.4993 7.3974 11.4993 6.9999C11.4993 6.6024 11.6571 6.22115 11.938 5.9399H11.94Z" fill="#000221"/>
</g>
<defs>
<clipPath id="clip0_285_5324">
<rect width="24" height="24" fill="white"/>
</clipPath>
</defs>
</svg>
