<svg width="24" height="24" viewBox="0 0 24 24" fill="none" xmlns="http://www.w3.org/2000/svg">
<path d="M18.42 2.79693L18.806 2.85293C19.406 2.94793 20.078 3.10693 20.491 3.51993C20.904 3.93293 21.064 4.60592 21.159 5.20592L21.215 5.59093C21.341 6.50093 21.374 7.69392 21.159 9.01792C20.735 11.6309 19.344 14.7479 15.851 17.1629C15.8357 17.3415 15.83 17.5208 15.834 17.6999L15.851 18.2429C15.861 18.6049 15.855 18.9659 15.755 19.3129C15.565 19.9729 14.888 20.4079 14.255 20.7199L13.945 20.8669L13.545 21.0429L13.272 21.1529C12.565 21.4229 11.712 21.6119 11.154 21.0529C10.901 20.7999 10.784 20.4559 10.69 20.1119L10.644 19.9399C10.484 19.3329 10.303 18.7299 10.077 18.1459C10.0146 18.2218 9.94853 18.2945 9.879 18.3639C9.334 18.9079 8.595 19.1819 7.856 19.3939L7.365 19.5289L6.875 19.6589L6.397 19.7789L5.965 19.8789L5.448 19.9889L5.125 20.0519C4.96391 20.0818 4.79798 20.0719 4.64153 20.0233C4.48507 19.9748 4.34279 19.8888 4.22694 19.773C4.1111 19.6571 4.02517 19.5149 3.97658 19.3584C3.92798 19.2019 3.91817 19.036 3.948 18.8749L4.059 18.3239L4.188 17.7459L4.312 17.2359L4.537 16.3909C4.76 15.5709 5.031 14.7259 5.637 14.1209L5.736 14.0259L4.973 13.7519L4.206 13.4879C3.757 13.3399 3.285 13.1839 2.959 12.8579C2.363 12.2619 2.616 11.3319 2.913 10.6009L3.079 10.2139L3.216 9.91293C3.533 9.23892 3.983 8.46292 4.699 8.25693C5.046 8.15693 5.406 8.15093 5.769 8.15992L6.312 8.17793C6.492 8.18259 6.671 8.17693 6.849 8.16093C9.263 4.66793 12.381 3.27693 14.994 2.85293C16.1271 2.66623 17.2814 2.64736 18.42 2.79693ZM15.314 4.82693C13.116 5.18393 10.445 6.36093 8.361 9.49593C8.108 9.87593 7.681 10.0569 7.246 10.1259C7 10.1659 6.752 10.1759 6.503 10.1759L5.756 10.1649C5.632 10.1643 5.50767 10.1663 5.383 10.1709C5.079 10.5749 4.867 11.0549 4.708 11.5319L6.208 12.0769L6.825 12.3099C7.953 12.7519 9.045 13.2869 9.885 14.1269C11.3 15.5419 12.019 17.3929 12.539 19.2839C12.995 19.1239 13.453 18.9199 13.841 18.6289L13.847 18.2559L13.836 17.5099C13.836 17.2619 13.846 17.0139 13.886 16.7659C13.954 16.3309 14.136 15.9039 14.516 15.6509C17.651 13.5669 18.828 10.8959 19.185 8.69793C19.365 7.58792 19.335 6.59592 19.234 5.86492C19.1951 5.56167 19.1306 5.26226 19.041 4.96992C18.7486 4.88071 18.4492 4.81648 18.146 4.77793C17.2046 4.65593 16.2505 4.67178 15.314 4.82693ZM7.05 15.5349C6.7 15.9579 6.537 16.5129 6.406 17.0629L6.298 17.5309L6.243 17.7569L6.937 17.5939C7.487 17.4639 8.043 17.2989 8.465 16.9489C8.65251 16.7613 8.7578 16.5068 8.7577 16.2416C8.75761 15.9763 8.65214 15.7219 8.4645 15.5344C8.27686 15.3469 8.02242 15.2416 7.75715 15.2417C7.49188 15.2418 7.23751 15.3473 7.05 15.5349ZM12.707 8.46493C12.8927 8.27917 13.1131 8.13181 13.3558 8.03125C13.5984 7.9307 13.8585 7.87892 14.1211 7.87887C14.3838 7.87883 14.6439 7.93051 14.8866 8.03098C15.1292 8.13145 15.3497 8.27874 15.5355 8.46443C15.7213 8.65011 15.8686 8.87057 15.9692 9.11321C16.0697 9.35585 16.1215 9.61592 16.1216 9.87857C16.1216 10.1412 16.0699 10.4013 15.9694 10.644C15.869 10.8867 15.7217 11.1072 15.536 11.2929C15.1609 11.6681 14.652 11.8788 14.1215 11.8788C13.591 11.8788 13.0821 11.6681 12.707 11.2929C12.3319 10.9178 12.1211 10.409 12.1211 9.87843C12.1211 9.34788 12.3319 8.83907 12.707 8.46392V8.46493Z" fill="#000221"/>
</svg>
