<svg width="32" height="32" viewBox="0 0 32 32" fill="none" xmlns="http://www.w3.org/2000/svg">
<g clip-path="url(#clip0_285_5346)">
<path fill-rule="evenodd" clip-rule="evenodd" d="M21.4133 14.5867C21.7879 14.9617 21.9982 15.47 21.9982 16C21.9982 16.53 21.7879 17.0384 21.4133 17.4134L13.872 24.9574C13.4968 25.3324 12.988 25.543 12.4575 25.5429C11.927 25.5428 11.4183 25.3319 11.0433 24.9567C10.6683 24.5815 10.4577 24.0727 10.4578 23.5422C10.4579 23.0118 10.6688 22.5031 11.044 22.128L17.172 16L11.044 9.87204C10.6795 9.49501 10.4777 8.9899 10.482 8.4655C10.4863 7.94111 10.6964 7.43938 11.067 7.06839C11.4377 6.69739 11.9392 6.48682 12.4636 6.48202C12.988 6.47722 13.4933 6.67857 13.8707 7.04271L21.4147 14.5854L21.4133 14.5867Z" fill="#000221"/>
</g>
<defs>
<clipPath id="clip0_285_5346">
<rect width="32" height="32" fill="white"/>
</clipPath>
</defs>
</svg>
