<svg width="24" height="24" viewBox="0 0 24 24" fill="none" xmlns="http://www.w3.org/2000/svg">
<path fill-rule="evenodd" clip-rule="evenodd" d="M6.79799 2.88401C8.02546 2.39237 9.36705 2.25835 10.6675 2.49744C11.968 2.73654 13.1742 3.33897 14.1465 4.23504C15.1189 5.13111 15.8176 6.28419 16.1619 7.56085C16.5062 8.8375 16.4819 10.1856 16.092 11.449L20.486 15.167C20.8818 15.5034 21.2036 15.9181 21.4312 16.385C21.6587 16.8519 21.787 17.3609 21.8081 17.8799C21.8291 18.3989 21.7424 18.9166 21.5534 19.4004C21.3644 19.8842 21.0772 20.3236 20.7099 20.6909C20.3426 21.0582 19.9032 21.3454 19.4194 21.5344C18.9356 21.7234 18.4179 21.8101 17.8989 21.7891C17.3799 21.7681 16.8709 21.6397 16.404 21.4122C15.9371 21.1846 15.5223 20.8628 15.186 20.467L11.469 16.073C10.2054 16.4631 8.85722 16.4874 7.58043 16.1431C6.30363 15.7987 5.15044 15.0999 4.25432 14.1274C3.3582 13.1549 2.7558 11.9485 2.51683 10.6479C2.27786 9.34725 2.41209 8.00552 2.90399 6.77801C3.26199 5.88401 4.38399 5.77101 4.96699 6.40501L8.16999 9.88301L9.61599 9.59501L9.90599 8.14601L6.42599 4.94801C5.79199 4.36501 5.90299 3.24201 6.79799 2.88401ZM8.805 4.42001L11.568 6.96001C11.89 7.25601 12.034 7.69801 11.948 8.12501L11.478 10.479C11.4296 10.7213 11.3105 10.9437 11.1357 11.1183C10.9609 11.2929 10.7383 11.4118 10.496 11.46L8.14599 11.927C7.93567 11.9688 7.71813 11.9558 7.51428 11.8893C7.31043 11.8227 7.12713 11.7049 6.98199 11.547L4.43799 8.78501C4.33444 9.64515 4.45607 10.5174 4.79097 11.3165C5.12587 12.1155 5.66255 12.8138 6.34846 13.343C7.03436 13.8723 7.84597 14.2143 8.7038 14.3356C9.56162 14.4569 10.4362 14.3533 11.242 14.035C11.4864 13.9385 11.7549 13.9208 12.0099 13.9845C12.2649 14.0481 12.4936 14.1899 12.664 14.39L16.714 19.176C16.8711 19.3624 17.0651 19.5141 17.2839 19.6216C17.5027 19.729 17.7414 19.7899 17.9849 19.8002C18.2284 19.8106 18.4715 19.7703 18.6986 19.6818C18.9257 19.5934 19.132 19.4587 19.3043 19.2863C19.4767 19.114 19.6114 18.9077 19.6998 18.6806C19.7883 18.4535 19.8286 18.2105 19.8182 17.9669C19.8079 17.7234 19.747 17.4847 19.6396 17.2659C19.5321 17.0471 19.3804 16.8531 19.194 16.696L14.409 12.646C14.2089 12.4756 14.0671 12.2469 14.0035 11.9919C13.9398 11.737 13.9575 11.4684 14.054 11.224C14.3729 10.4183 14.477 9.54345 14.3559 8.68536C14.2349 7.82728 13.8929 7.01539 13.3635 6.3293C12.8342 5.64322 12.1355 5.1065 11.3362 4.77179C10.5369 4.43707 9.66429 4.31585 8.80399 4.42001H8.805Z" fill="#000221"/>
</svg>
