<svg width="24" height="24" viewBox="0 0 24 24" fill="none" xmlns="http://www.w3.org/2000/svg">
<path d="M10.92 2.868C11.03 2.67916 11.1877 2.52247 11.3772 2.41357C11.5667 2.30467 11.7814 2.24736 12 2.24736C12.2185 2.24736 12.4333 2.30467 12.6228 2.41357C12.8123 2.52247 12.9699 2.67916 13.08 2.868L15.875 7.666L21.303 8.842C21.5165 8.8884 21.7141 8.98995 21.8761 9.13653C22.0382 9.28312 22.159 9.46961 22.2264 9.67742C22.2939 9.88524 22.3058 10.1071 22.2608 10.3209C22.2158 10.5347 22.1155 10.733 21.97 10.896L18.27 15.037L18.83 20.562C18.8521 20.7796 18.8167 20.9991 18.7274 21.1987C18.6381 21.3983 18.498 21.571 18.3211 21.6996C18.1442 21.8281 17.9367 21.908 17.7192 21.9312C17.5018 21.9544 17.2821 21.9202 17.082 21.832L12 19.592L6.91799 21.832C6.7179 21.9202 6.49818 21.9544 6.28074 21.9312C6.0633 21.908 5.85577 21.8281 5.67886 21.6996C5.50195 21.571 5.36185 21.3983 5.27255 21.1987C5.18326 20.9991 5.14789 20.7796 5.16999 20.562L5.72999 15.037L2.02999 10.897C1.88421 10.734 1.78374 10.5357 1.7386 10.3217C1.69346 10.1078 1.70523 9.88573 1.77273 9.67776C1.84023 9.46978 1.96111 9.28315 2.12329 9.1365C2.28547 8.98985 2.48329 8.8883 2.69699 8.842L8.12499 7.666L10.92 2.868Z" fill="#000221"/>
</svg>
