<svg width="24" height="24" viewBox="0 0 24 24" fill="none" xmlns="http://www.w3.org/2000/svg">
<path d="M10.077 2.6139C10.415 1.8539 11.456 1.8169 11.864 2.4999L11.923 2.6139L12.965 4.9589C13.8749 7.00582 15.388 8.72617 17.302 9.8899L17.624 10.0789L19.474 11.1189C19.6211 11.2012 19.7452 11.3191 19.8351 11.4617C19.9249 11.6043 19.9777 11.7671 19.9885 11.9353C19.9994 12.1035 19.9679 12.2717 19.8971 12.4246C19.8263 12.5776 19.7183 12.7104 19.583 12.8109L19.475 12.8809L17.624 13.9209C15.6714 15.0193 14.1007 16.6876 13.122 18.7029L12.965 19.0409L11.923 21.3859C11.585 22.1459 10.544 22.1829 10.136 21.4999L10.077 21.3859L9.03499 19.0409C8.12512 16.994 6.61201 15.2736 4.69799 14.1099L4.37599 13.9209L2.52599 12.8809C2.37892 12.7986 2.25479 12.6807 2.16492 12.5381C2.07505 12.3956 2.02229 12.2327 2.01146 12.0645C2.00062 11.8963 2.03205 11.7281 2.10289 11.5752C2.17372 11.4222 2.2817 11.2894 2.41699 11.1889L2.52499 11.1189L4.37599 10.0789C6.32861 8.98055 7.89931 7.31216 8.87799 5.2969L9.03499 4.9589L10.077 2.6139ZM11 5.4619C9.75599 8.2619 7.71399 10.4959 5.03999 11.9999C7.71399 13.5039 9.75599 15.7379 11 18.5379C12.248 15.7309 14.29 13.5019 16.96 11.9999C14.286 10.4959 12.244 8.2619 11 5.4619ZM19.22 2.1219C19.7167 3.24936 20.5636 4.1867 21.635 4.7949C21.795 4.8849 21.795 5.1149 21.635 5.2049C20.5632 5.81362 19.7163 6.7517 19.22 7.8799C19.201 7.92237 19.1701 7.95843 19.1311 7.98374C19.092 8.00905 19.0465 8.02251 19 8.02251C18.9535 8.02251 18.9079 8.00905 18.8689 7.98374C18.8299 7.95843 18.799 7.92237 18.78 7.8799C18.2835 6.75207 17.4366 5.81436 16.365 5.2059C16.3288 5.18527 16.2988 5.15544 16.2778 5.11944C16.2569 5.08344 16.2459 5.04254 16.2459 5.0009C16.2459 4.95927 16.2569 4.91837 16.2778 4.88237C16.2988 4.84636 16.3288 4.81653 16.365 4.7959C17.4369 4.18693 18.2838 3.24847 18.78 2.1199C18.799 2.07743 18.8299 2.04137 18.8689 2.01607C18.9079 1.99076 18.9535 1.97729 19 1.97729C19.0465 1.97729 19.092 1.99076 19.1311 2.01607C19.1701 2.04137 19.201 2.07743 19.22 2.1199V2.1219Z" fill="#000221"/>
</svg>
