<svg width="24" height="24" viewBox="0 0 24 24" fill="none" xmlns="http://www.w3.org/2000/svg">
<path fill-rule="evenodd" clip-rule="evenodd" d="M11 5C11.0001 4.40898 11.1748 3.83115 11.5021 3.33904C11.8294 2.84693 12.2948 2.46247 12.8398 2.2339C13.3849 2.00534 13.9853 1.94286 14.5657 2.05431C15.1461 2.16575 15.6807 2.44616 16.1023 2.86033C16.5239 3.27451 16.8138 3.80399 16.9356 4.38233C17.0574 4.96067 17.0057 5.5621 16.7868 6.11113C16.568 6.66016 16.1919 7.13233 15.7057 7.46837C15.2196 7.80442 14.6449 7.98937 14.054 8L13.836 8.653C14.3517 8.9657 14.7992 9.37887 15.1521 9.86794C15.5049 10.357 15.7559 10.912 15.89 11.5H17.209C17.4387 10.9736 17.8427 10.5424 18.353 10.2788C18.8633 10.0152 19.4488 9.93539 20.0111 10.0527C20.5733 10.1701 21.078 10.4774 21.4403 10.9231C21.8025 11.3688 22.0003 11.9257 22.0003 12.5C22.0003 13.0744 21.8025 13.6312 21.4403 14.0769C21.078 14.5226 20.5733 14.8299 20.0111 14.9473C19.4488 15.0646 18.8633 14.9848 18.353 14.7212C17.8427 14.4576 17.4387 14.0264 17.209 13.5H15.889C15.7225 14.2294 15.3767 14.9058 14.883 15.468L15.587 16.172C16.1217 15.9622 16.7123 15.9429 17.2595 16.1173C17.8068 16.2918 18.2772 16.6493 18.5918 17.1299C18.9065 17.6104 19.046 18.1846 18.987 18.7559C18.928 19.3273 18.6741 19.8609 18.268 20.267C17.8619 20.6731 17.3283 20.927 16.7569 20.986C16.1856 21.045 15.6114 20.9054 15.1309 20.5908C14.6503 20.2762 14.2928 19.8058 14.1183 19.2585C13.9439 18.7113 13.9632 18.1207 14.173 17.586L13.239 16.652C12.6882 16.8822 12.097 17.0005 11.5 17C10.8129 17 10.1349 16.8426 9.518 16.54L8.64701 17.586C8.98033 18.2102 9.08228 18.9321 8.93486 19.6242C8.78744 20.3163 8.40012 20.934 7.84136 21.3681C7.2826 21.8023 6.58835 22.0249 5.8813 21.9968C5.17426 21.9686 4.49992 21.6914 3.97746 21.2142C3.45499 20.737 3.11803 20.0905 3.02611 19.3889C2.93419 18.6872 3.09324 17.9757 3.47514 17.38C3.85704 16.7843 4.43722 16.3428 5.11315 16.1335C5.78909 15.9241 6.51726 15.9604 7.16901 16.236L7.96301 15.282C7.33778 14.4896 6.99845 13.5093 7.00001 12.5C7.00001 11.765 7.176 11.071 7.48901 10.459L6.62101 9.735C6.10756 9.99262 5.52107 10.0656 4.96017 9.94154C4.39927 9.81754 3.89819 9.50415 3.54121 9.05409C3.18423 8.60404 2.99312 8.04478 3.00004 7.47038C3.00696 6.89597 3.21149 6.34148 3.57921 5.90016C3.94693 5.45883 4.45542 5.15761 5.01914 5.04715C5.58286 4.93669 6.16743 5.02373 6.67451 5.29364C7.1816 5.56355 7.58026 5.99985 7.80345 6.52917C8.02664 7.05848 8.06074 7.64851 7.90001 8.2L8.768 8.924C9.67167 8.23146 10.8051 7.90895 11.938 8.022L12.156 7.368C11.7958 7.08731 11.5044 6.72809 11.3041 6.31772C11.1038 5.90735 10.9998 5.45666 11 5Z" fill="#000221"/>
</svg>
