<svg width="24" height="24" viewBox="0 0 24 24" fill="none" xmlns="http://www.w3.org/2000/svg">
<path d="M10.268 20.158C10.631 20.325 10.923 20.492 11.121 20.615C11.406 20.792 11.645 21 12.001 21C12.349 21 12.596 20.79 12.879 20.615C13.077 20.492 13.369 20.325 13.732 20.158C14.465 19.819 15.443 19.5 16.5 19.5C17.779 19.5 18.938 19.968 19.68 20.362C19.9141 20.4848 20.1752 20.5473 20.4395 20.5438C20.7039 20.5403 20.9632 20.4709 21.194 20.342C21.621 20.106 22 19.632 22 19V6.5C22 5.879 21.705 5.237 21.102 4.871C20.328 4.401 18.586 3.5 16.5 3.5C15.057 3.5 13.785 3.93 12.893 4.342C12.539 4.506 12.237 4.67 12 4.81C11.763 4.67 11.461 4.506 11.107 4.342C10.215 3.931 8.94299 3.5 7.49999 3.5C5.41399 3.5 3.67199 4.4 2.89799 4.871C2.62055 5.04205 2.39206 5.28194 2.23471 5.56738C2.07736 5.85281 1.9965 6.17409 1.99999 6.5V19C1.99999 19.633 2.37899 20.106 2.80599 20.342C3.22899 20.575 3.80199 20.637 4.32099 20.362C5.06199 19.968 6.22099 19.5 7.49999 19.5C8.55699 19.5 9.53499 19.82 10.268 20.158Z" fill="#000221"/>
</svg>
