<svg width="29" height="29" viewBox="0 0 29 29" fill="none" xmlns="http://www.w3.org/2000/svg">
<path fill-rule="evenodd" clip-rule="evenodd" d="M19.3333 3.625C20.9357 3.625 22.4724 4.26153 23.6054 5.39456C24.7385 6.5276 25.375 8.06432 25.375 9.66667V19.3333C25.375 20.9357 24.7385 22.4724 23.6054 23.6054C22.4724 24.7385 20.9357 25.375 19.3333 25.375H9.66667C8.06432 25.375 6.5276 24.7385 5.39456 23.6054C4.26153 22.4724 3.625 20.9357 3.625 19.3333V9.66667C3.625 8.06432 4.26153 6.5276 5.39456 5.39456C6.5276 4.26153 8.06432 3.625 9.66667 3.625H19.3333ZM19.3333 6.04167H9.66667C8.70526 6.04167 7.78322 6.42359 7.1034 7.1034C6.42359 7.78322 6.04167 8.70526 6.04167 9.66667V19.3333C6.04167 20.2947 6.42359 21.2168 7.1034 21.8966C7.78322 22.5764 8.70526 22.9583 9.66667 22.9583H19.3333C20.2947 22.9583 21.2168 22.5764 21.8966 21.8966C22.5764 21.2168 22.9583 20.2947 22.9583 19.3333V9.66667C22.9583 8.70526 22.5764 7.78322 21.8966 7.1034C21.2168 6.42359 20.2947 6.04167 19.3333 6.04167ZM14.5 9.66667C15.7819 9.66667 17.0113 10.1759 17.9177 11.0823C18.8241 11.9887 19.3333 13.2181 19.3333 14.5C19.3333 15.7819 18.8241 17.0113 17.9177 17.9177C17.0113 18.8241 15.7819 19.3333 14.5 19.3333C13.2181 19.3333 11.9887 18.8241 11.0823 17.9177C10.1759 17.0113 9.66667 15.7819 9.66667 14.5C9.66667 13.2181 10.1759 11.9887 11.0823 11.0823C11.9887 10.1759 13.2181 9.66667 14.5 9.66667ZM14.5 12.0833C13.8591 12.0833 13.2444 12.3379 12.7912 12.7912C12.3379 13.2444 12.0833 13.8591 12.0833 14.5C12.0833 15.1409 12.3379 15.7556 12.7912 16.2088C13.2444 16.6621 13.8591 16.9167 14.5 16.9167C15.1409 16.9167 15.7556 16.6621 16.2088 16.2088C16.6621 15.7556 16.9167 15.1409 16.9167 14.5C16.9167 13.8591 16.6621 13.2444 16.2088 12.7912C15.7556 12.3379 15.1409 12.0833 14.5 12.0833ZM19.9375 7.85417C20.258 7.85417 20.5653 7.98147 20.7919 8.20808C21.0185 8.43469 21.1458 8.74203 21.1458 9.0625C21.1458 9.38297 21.0185 9.69031 20.7919 9.91692C20.5653 10.1435 20.258 10.2708 19.9375 10.2708C19.617 10.2708 19.3097 10.1435 19.0831 9.91692C18.8565 9.69031 18.7292 9.38297 18.7292 9.0625C18.7292 8.74203 18.8565 8.43469 19.0831 8.20808C19.3097 7.98147 19.617 7.85417 19.9375 7.85417Z" fill="#000221"/>
</svg>
