<svg width="24" height="24" viewBox="0 0 24 24" fill="none" xmlns="http://www.w3.org/2000/svg">
<path fill-rule="evenodd" clip-rule="evenodd" d="M9.40201 3.59601C9.66741 3.35327 9.98207 3.17066 10.3245 3.06063C10.6669 2.95061 11.0291 2.91577 11.3862 2.95848C11.7433 3.0012 12.087 3.12047 12.3938 3.30816C12.7006 3.49584 12.9633 3.74752 13.164 4.04601L13.255 4.19201L13.945 5.38901C13.9923 5.32368 14.0423 5.26035 14.095 5.19901C14.669 4.52401 15.499 4.09701 16.432 3.94101C17.265 3.80101 17.895 4.38001 18.083 4.99101C18.288 5.65901 18.661 6.47101 19.133 7.33901C20.711 10.252 20.488 13.929 18.373 16.376C17.953 18.288 16.828 20.019 14.973 21.09C13.3948 22.0007 11.5248 22.2637 9.75666 21.8235C7.98849 21.3833 6.46004 20.2744 5.49301 18.73L5.19301 18.23L5.02101 17.944C4.84001 17.648 4.65801 17.351 4.49601 17.047L4.34201 16.74L3.16701 14.781C2.98265 14.4741 2.86672 14.1311 2.82714 13.7752C2.78756 13.4194 2.82526 13.0593 2.93767 12.7194C3.05009 12.3795 3.23456 12.0679 3.47848 11.8058C3.7224 11.5438 4.02002 11.3375 4.35101 11.201L4.50201 11.145L3.72801 9.80501C3.53898 9.47804 3.42649 9.11248 3.39899 8.7358C3.3715 8.35912 3.4297 7.9811 3.56924 7.63014C3.70878 7.27918 3.92602 6.96439 4.20465 6.70942C4.48329 6.45445 4.81607 6.26593 5.17801 6.15801C4.95107 5.60663 4.92867 4.9923 5.11485 4.42585C5.30104 3.85941 5.68354 3.37817 6.19335 3.06895C6.70316 2.75973 7.30671 2.64291 7.89508 2.73955C8.48345 2.8362 9.0179 3.13996 9.40201 3.59601ZM16.322 6.02801C16.0515 6.12023 15.8093 6.28075 15.619 6.49401C15.4572 6.68391 15.3587 6.9195 15.337 7.16801C15.916 7.27501 16.337 7.73501 16.485 8.21601C16.69 8.88401 17.063 9.69601 17.534 10.564C17.778 11.014 17.979 11.484 18.137 11.964C18.2506 10.6919 17.9851 9.41455 17.374 8.29301C16.962 7.53301 16.588 6.75601 16.322 6.02801ZM10.84 5.00801C10.7387 5.06631 10.661 5.15825 10.6205 5.26786C10.5799 5.37747 10.5791 5.49782 10.618 5.60801L10.656 5.69001L11.586 7.30201L11.656 7.41601L12.347 8.61301C12.511 8.38901 12.6993 8.18901 12.912 8.01301L13.075 7.88601L11.522 5.19101C11.4557 5.07618 11.3465 4.99238 11.2184 4.95806C11.0903 4.92374 10.9538 4.94171 10.839 5.00801H10.84ZM7.24001 4.77601C7.12517 4.84232 7.04138 4.95153 7.00706 5.07961C6.97274 5.2077 6.99071 5.34417 7.05701 5.45901L7.83001 6.79701C8.08158 6.57312 8.3758 6.40238 8.69501 6.29501L7.92401 4.96001C7.8577 4.84518 7.74849 4.76138 7.62041 4.72706C7.49232 4.69274 7.35585 4.71071 7.24101 4.77701L7.24001 4.77601ZM21.364 3.99801C21.4871 4.21004 21.528 4.45991 21.479 4.70014C21.43 4.94036 21.2944 5.1542 21.098 5.30101L21 5.36501L20.16 5.85201C19.9393 5.97938 19.6783 6.0177 19.4303 5.95913C19.1823 5.90057 18.966 5.74954 18.8256 5.5369C18.6852 5.32425 18.6313 5.06603 18.6749 4.81497C18.7184 4.56391 18.8562 4.33894 19.06 4.18601L19.157 4.12201L19.997 3.63501C20.1106 3.56907 20.2361 3.52616 20.3662 3.50871C20.4964 3.49127 20.6288 3.49964 20.7557 3.53335C20.8826 3.56706 21.0017 3.62545 21.1061 3.70517C21.2104 3.7849 21.2981 3.88441 21.364 3.99801ZM18.633 1.09001C18.8697 1.15336 19.0748 1.30139 19.2096 1.506C19.3443 1.71061 19.3993 1.95757 19.364 2.20001L19.34 2.31501L19.211 2.79801C19.1462 3.04588 18.9887 3.25941 18.7711 3.39456C18.5534 3.52971 18.2922 3.57616 18.0413 3.52434C17.7904 3.47252 17.5689 3.32637 17.4226 3.11605C17.2763 2.90573 17.2163 2.64728 17.255 2.39401L17.279 2.28001L17.409 1.79701C17.4777 1.54102 17.6452 1.32276 17.8747 1.19019C18.1042 1.05762 18.3769 1.02159 18.633 1.09001ZM14.986 1.09001C15.2227 1.02657 15.4744 1.05222 15.6934 1.16208C15.9123 1.27195 16.0834 1.45839 16.174 1.68601L16.211 1.79701L16.341 2.28001C16.4099 2.52737 16.3809 2.79173 16.2602 3.01834C16.1395 3.24495 15.9362 3.41644 15.6925 3.49729C15.4488 3.57813 15.1833 3.56214 14.9511 3.45263C14.7189 3.34312 14.5377 3.14847 14.445 2.90901L14.409 2.79801L14.279 2.31501C14.245 2.18816 14.2363 2.05584 14.2534 1.92562C14.2705 1.79539 14.3131 1.66982 14.3788 1.55606C14.4444 1.44231 14.5318 1.3426 14.636 1.26263C14.7402 1.18267 14.8591 1.12401 14.986 1.09001Z" fill="#000221"/>
</svg>
