<svg width="24" height="24" viewBox="0 0 24 24" fill="none" xmlns="http://www.w3.org/2000/svg">
<g clip-path="url(#clip0_4425_39040)">
<path d="M12.707 3.63605C12.5195 3.44858 12.2652 3.34326 12 3.34326C11.7348 3.34326 11.4805 3.44858 11.293 3.63605L5.63601 9.29305C5.5405 9.3853 5.46431 9.49564 5.41191 9.61764C5.3595 9.73965 5.33191 9.87087 5.33076 10.0036C5.3296 10.1364 5.3549 10.2681 5.40519 10.391C5.45547 10.5139 5.52972 10.6256 5.62361 10.7194C5.71751 10.8133 5.82916 10.8876 5.95205 10.9379C6.07495 10.9882 6.20663 11.0135 6.33941 11.0123C6.47219 11.0111 6.60341 10.9836 6.72541 10.9311C6.84742 10.8787 6.95776 10.8026 7.05001 10.707L11 6.75705V20C11 20.2653 11.1054 20.5196 11.2929 20.7072C11.4804 20.8947 11.7348 21 12 21C12.2652 21 12.5196 20.8947 12.7071 20.7072C12.8946 20.5196 13 20.2653 13 20V6.75705L16.95 10.707C17.1386 10.8892 17.3912 10.99 17.6534 10.9877C17.9156 10.9854 18.1664 10.8803 18.3518 10.6949C18.5372 10.5095 18.6424 10.2586 18.6447 9.99645C18.647 9.73425 18.5462 9.48165 18.364 9.29305L12.707 3.63605Z" fill="black"/>
</g>
<defs>
<clipPath id="clip0_4425_39040">
<rect width="24" height="24" fill="white"/>
</clipPath>
</defs>
</svg>
