<svg width="24" height="24" viewBox="0 0 24 24" fill="none" xmlns="http://www.w3.org/2000/svg">
<path fill-rule="evenodd" clip-rule="evenodd" d="M14 2.00012C14.7957 1.99296 15.5616 2.30216 16.1292 2.85971C16.6969 3.41725 17.0198 4.17747 17.027 4.97312C17.0342 5.76877 16.725 6.53468 16.1674 7.10235C15.6099 7.67002 14.8497 7.99296 14.054 8.00012L13.836 8.65312C14.3517 8.96582 14.7992 9.37898 15.1521 9.86806C15.5049 10.3571 15.7559 10.9122 15.89 11.5001H17.209C17.4387 10.9737 17.8427 10.5425 18.353 10.2789C18.8633 10.0153 19.4488 9.93551 20.0111 10.0529C20.5733 10.1702 21.078 10.4776 21.4403 10.9232C21.8025 11.3689 22.0003 11.9258 22.0003 12.5001C22.0003 13.0745 21.8025 13.6313 21.4403 14.077C21.078 14.5227 20.5733 14.83 20.0111 14.9474C19.4488 15.0647 18.8633 14.9849 18.353 14.7213C17.8427 14.4578 17.4387 14.0265 17.209 13.5001H15.889C15.7225 14.2296 15.3767 14.906 14.883 15.4681L15.587 16.1721C16.1217 15.9623 16.7123 15.943 17.2595 16.1174C17.8068 16.2919 18.2772 16.6494 18.5918 17.13C18.9064 17.6105 19.046 18.1847 18.987 18.7561C18.928 19.3274 18.6741 19.861 18.268 20.2671C17.8619 20.6733 17.3283 20.9272 16.7569 20.9861C16.1856 21.0451 15.6114 20.9056 15.1309 20.591C14.6503 20.2764 14.2928 19.8059 14.1183 19.2586C13.9439 18.7114 13.9632 18.1208 14.173 17.5861L13.239 16.6521C12.6882 16.8823 12.097 17.0006 11.5 17.0001C10.8129 17.0001 10.1349 16.8428 9.518 16.5401L8.647 17.5861C8.98032 18.2103 9.08228 18.9322 8.93486 19.6243C8.78743 20.3164 8.40012 20.9341 7.84135 21.3682C7.28259 21.8024 6.58835 22.0251 5.8813 21.9969C5.17425 21.9687 4.49992 21.6916 3.97745 21.2143C3.45499 20.7371 3.11802 20.0906 3.0261 19.389C2.93419 18.6874 3.09323 17.9758 3.47514 17.3801C3.85704 16.7844 4.43722 16.3429 5.11315 16.1336C5.78908 15.9242 6.51726 15.9606 7.169 16.2361L7.963 15.2821C7.33778 14.4897 6.99845 13.5095 7 12.5001C7 11.7651 7.176 11.0721 7.488 10.4591L6.62 9.73512C6.10645 9.99245 5.51996 10.0651 4.95915 9.94081C4.39834 9.81653 3.89743 9.50293 3.54067 9.05273C3.18391 8.60254 2.99306 8.04323 3.00022 7.46886C3.00739 6.89449 3.21212 6.34011 3.57999 5.89895C3.94786 5.45779 4.45643 5.15677 5.02016 5.04651C5.5839 4.93625 6.1684 5.02349 6.67537 5.29354C7.18235 5.56359 7.58086 5.99999 7.80389 6.52934C8.02692 7.05869 8.06086 7.64869 7.9 8.20012L8.77 8.92412C9.67341 8.23182 10.8064 7.90932 11.939 8.02212L12.157 7.36812C11.6635 6.98425 11.3022 6.45576 11.1237 5.85654C10.9452 5.25732 10.9584 4.6173 11.1615 4.02595C11.3645 3.43459 11.7472 2.92144 12.2561 2.55823C12.7651 2.19502 13.3748 1.99989 14 2.00012ZM6 18.0001C5.73479 18.0001 5.48043 18.1055 5.2929 18.293C5.10536 18.4806 5 18.7349 5 19.0001C5 19.2653 5.10536 19.5197 5.2929 19.7072C5.48043 19.8948 5.73479 20.0001 6 20.0001C6.26522 20.0001 6.51957 19.8948 6.70711 19.7072C6.89464 19.5197 7 19.2653 7 19.0001C7 18.7349 6.89464 18.4806 6.70711 18.293C6.51957 18.1055 6.26522 18.0001 6 18.0001ZM16.5 18.0001C16.3674 18.0001 16.2402 18.0528 16.1464 18.1466C16.0527 18.2403 16 18.3675 16 18.5001C16 18.6327 16.0527 18.7599 16.1464 18.8537C16.2402 18.9474 16.3674 19.0001 16.5 19.0001C16.6326 19.0001 16.7598 18.9474 16.8536 18.8537C16.9473 18.7599 17 18.6327 17 18.5001C17 18.3675 16.9473 18.2403 16.8536 18.1466C16.7598 18.0528 16.6326 18.0001 16.5 18.0001ZM11.5 10.0001C10.837 10.0001 10.2011 10.2635 9.73223 10.7324C9.26339 11.2012 9 11.8371 9 12.5001C9 13.1632 9.26339 13.799 9.73223 14.2679C10.2011 14.7367 10.837 15.0001 11.5 15.0001C12.163 15.0001 12.7989 14.7367 13.2678 14.2679C13.7366 13.799 14 13.1632 14 12.5001C14 11.8371 13.7366 11.2012 13.2678 10.7324C12.7989 10.2635 12.163 10.0001 11.5 10.0001ZM19.5 12.0001C19.3674 12.0001 19.2402 12.0528 19.1464 12.1466C19.0527 12.2403 19 12.3675 19 12.5001C19 12.6327 19.0527 12.7599 19.1464 12.8537C19.2402 12.9474 19.3674 13.0001 19.5 13.0001C19.6326 13.0001 19.7598 12.9474 19.8536 12.8537C19.9473 12.7599 20 12.6327 20 12.5001C20 12.3675 19.9473 12.2403 19.8536 12.1466C19.7598 12.0528 19.6326 12.0001 19.5 12.0001ZM5.5 7.00012C5.36739 7.00012 5.24022 7.0528 5.14645 7.14657C5.05268 7.24034 5 7.36751 5 7.50012C5 7.63273 5.05268 7.75991 5.14645 7.85367C5.24022 7.94744 5.36739 8.00012 5.5 8.00012C5.63261 8.00012 5.75979 7.94744 5.85356 7.85367C5.94732 7.75991 6 7.63273 6 7.50012C6 7.36751 5.94732 7.24034 5.85356 7.14657C5.75979 7.0528 5.63261 7.00012 5.5 7.00012ZM14 4.00012C13.7348 4.00012 13.4804 4.10548 13.2929 4.29302C13.1054 4.48055 13 4.73491 13 5.00012C13 5.26534 13.1054 5.51969 13.2929 5.70723C13.4804 5.89476 13.7348 6.00012 14 6.00012C14.2652 6.00012 14.5196 5.89476 14.7071 5.70723C14.8946 5.51969 15 5.26534 15 5.00012C15 4.73491 14.8946 4.48055 14.7071 4.29302C14.5196 4.10548 14.2652 4.00012 14 4.00012Z" fill="#000221"/>
</svg>
