<svg width="24" height="24" viewBox="0 0 24 24" fill="none" xmlns="http://www.w3.org/2000/svg">
<path fill-rule="evenodd" clip-rule="evenodd" d="M11.206 4.49C12.0446 4.99311 12.9822 5.30883 13.9544 5.41551C14.9265 5.52218 15.9102 5.41728 16.838 5.108L18.418 4.581L17.11 8.51C16.9978 8.84641 17.0084 9.21169 17.14 9.541L18.679 13.387L16.207 14.211C15.553 14.4289 14.8595 14.5028 14.1743 14.4275C13.489 14.3522 12.8282 14.1297 12.237 13.775C11.3045 13.2153 10.251 12.8881 9.1655 12.8211C8.07998 12.7541 6.99427 12.9492 6 13.39V4.982C6.00012 4.87257 6.03067 4.76532 6.08824 4.67226C6.14581 4.57919 6.22813 4.50397 6.326 4.455C7.893 3.672 9.659 3.562 11.206 4.49ZM4 7V4.982C4 4.002 4.554 3.105 5.431 2.666C7.607 1.578 10.105 1.497 12.235 2.775C12.8262 3.12966 13.487 3.35225 14.1723 3.4275C14.8575 3.50276 15.551 3.42891 16.205 3.211L19.494 2.115C19.6876 2.05066 19.8953 2.04144 20.0939 2.08838C20.2925 2.13531 20.4741 2.23656 20.6184 2.38078C20.7627 2.52501 20.8641 2.70654 20.9112 2.90507C20.9583 3.10361 20.9492 3.31133 20.885 3.505L19.065 8.969L20.889 13.53C20.9447 13.6691 20.9713 13.8182 20.9673 13.968C20.9633 14.1178 20.9287 14.2652 20.8657 14.4012C20.8027 14.5371 20.7126 14.6588 20.6008 14.7587C20.4891 14.8586 20.3582 14.9346 20.216 14.982L16.838 16.108C15.9102 16.4173 14.9265 16.5222 13.9544 16.4155C12.9822 16.3088 12.0446 15.9931 11.206 15.49C10.5165 15.0762 9.73374 14.843 8.93019 14.8121C8.12665 14.7812 7.32828 14.9534 6.609 15.313L6 15.618V21C6 21.2652 5.89464 21.5196 5.70711 21.7071C5.51957 21.8946 5.26522 22 5 22C4.73478 22 4.48043 21.8946 4.29289 21.7071C4.10536 21.5196 4 21.2652 4 21V15V7Z" fill="#000221"/>
</svg>
