<svg width="24" height="24" viewBox="0 0 24 24" fill="none" xmlns="http://www.w3.org/2000/svg">
<path fill-rule="evenodd" clip-rule="evenodd" d="M16.202 2.07399C17.242 2.12399 18.16 2.34599 18.875 2.60899C19.55 2.85799 20.155 3.18399 20.485 3.51499C20.815 3.84499 21.142 4.44999 21.39 5.12499C21.7034 5.98361 21.8841 6.88494 21.926 7.79799C22.011 9.58799 21.581 11.725 20.006 13.767L19.988 13.814L18.551 16.69C18.4611 16.8699 18.3189 17.0186 18.1431 17.1165C17.9674 17.2144 17.7662 17.257 17.5658 17.2387C17.3655 17.2205 17.1753 17.1422 17.0201 17.0142C16.8649 16.8861 16.752 16.7142 16.696 16.521C15.4007 17.1663 13.997 17.5657 12.556 17.699L12.046 17.741L11.463 17.78L10.487 17.833L9.43501 17.883C8.93201 17.907 8.42101 17.931 7.92701 17.957C7.88753 18.5102 7.82615 19.0616 7.74301 19.61C7.69736 19.9341 7.61999 20.253 7.51201 20.562C7.32101 21.064 6.91501 21.485 6.34301 21.485C5.59101 21.485 4.90701 20.955 4.35001 20.428L4.08201 20.168L3.70201 19.787C3.13801 19.207 2.51501 18.472 2.51501 17.657C2.51501 17.197 2.78201 16.899 2.95101 16.76C3.24801 16.515 3.63201 16.4 4.01301 16.323L4.38901 16.257C4.9377 16.1738 5.48947 16.1124 6.04301 16.073L6.18301 13.177L6.22001 12.537L6.25801 11.954C6.27135 11.7707 6.28568 11.6007 6.30101 11.444C6.43901 9.98999 6.84201 8.56399 7.47901 7.30399C7.28582 7.24791 7.11404 7.13487 6.9861 6.97963C6.85816 6.82439 6.78001 6.63418 6.76187 6.43383C6.74372 6.23349 6.78643 6.03233 6.88439 5.85663C6.98236 5.68093 7.13104 5.53887 7.31101 5.44899L10.139 4.03399C10.1696 4.01907 10.201 4.00572 10.233 3.99399C12.274 2.41899 14.412 1.98799 16.202 2.07399ZM16.95 7.04999C16.6688 6.7686 16.2872 6.61046 15.8894 6.61036C15.4915 6.61027 15.1099 6.76823 14.8285 7.04949C14.5471 7.33075 14.389 7.71228 14.3889 8.11014C14.3888 8.508 14.5468 8.8896 14.828 9.17099C15.1108 9.44437 15.4896 9.59574 15.8829 9.59251C16.2762 9.58928 16.6525 9.4317 16.9308 9.15372C17.209 8.87574 17.3669 8.49959 17.3705 8.10629C17.3741 7.713 17.2231 7.33302 16.95 7.04999Z" fill="#000221"/>
</svg>
