<svg width="31" height="31" viewBox="0 0 31 31" fill="none" xmlns="http://www.w3.org/2000/svg">
<path d="M20.6667 20.6666C20.983 20.6666 21.2884 20.7828 21.5248 20.993C21.7612 21.2032 21.9123 21.4929 21.9493 21.8071L21.9583 21.9583V27.1249C21.9583 27.4413 21.8421 27.7466 21.6319 27.9831C21.4217 28.2195 21.132 28.3705 20.8178 28.4075L20.6667 28.4166H10.3333C10.017 28.4165 9.71162 28.3004 9.4752 28.0902C9.23878 27.8799 9.08773 27.5902 9.05072 27.276L9.04168 27.1249V21.9583C9.04172 21.6419 9.15787 21.3365 9.3681 21.1001C9.57833 20.8637 9.86802 20.7126 10.1822 20.6756L10.3333 20.6666H20.6667ZM24.5417 9.04159C25.5694 9.04159 26.555 9.44984 27.2817 10.1765C28.0084 10.9033 28.4167 11.8889 28.4167 12.9166V21.9583C28.4167 22.6434 28.1445 23.3005 27.66 23.7849C27.1756 24.2694 26.5185 24.5416 25.8333 24.5416H24.5417V20.6666C24.5417 19.9814 24.2695 19.3244 23.785 18.8399C23.3006 18.3554 22.6435 18.0833 21.9583 18.0833H9.04168C8.35653 18.0833 7.69945 18.3554 7.21498 18.8399C6.73052 19.3244 6.45834 19.9814 6.45834 20.6666V24.5416H5.16668C4.48153 24.5416 3.82445 24.2694 3.33998 23.7849C2.85552 23.3005 2.58334 22.6434 2.58334 21.9583V12.9166C2.58334 11.8889 2.9916 10.9033 3.7183 10.1765C4.44501 9.44984 5.43063 9.04159 6.45834 9.04159H24.5417ZM21.9583 11.6249H19.375C19.0458 11.6253 18.7291 11.7513 18.4897 11.9773C18.2504 12.2034 18.1063 12.5122 18.087 12.8409C18.0677 13.1695 18.1746 13.4932 18.3859 13.7456C18.5972 13.9981 18.897 14.1603 19.2239 14.1992L19.375 14.2083H21.9583C22.2876 14.2079 22.6042 14.0818 22.8436 13.8558C23.083 13.6298 23.2271 13.3209 23.2464 12.9923C23.2657 12.6636 23.1587 12.34 22.9474 12.0876C22.7361 11.8351 22.4364 11.6728 22.1095 11.634L21.9583 11.6249ZM21.9583 2.58325C22.3009 2.58325 22.6295 2.71934 22.8717 2.96157C23.1139 3.20381 23.25 3.53235 23.25 3.87492V6.45825H7.75001V3.87492C7.75001 3.53235 7.8861 3.20381 8.12833 2.96157C8.37057 2.71934 8.69911 2.58325 9.04168 2.58325H21.9583Z" fill="black"/>
</svg>
