<svg width="24" height="24" viewBox="0 0 24 24" fill="none" xmlns="http://www.w3.org/2000/svg">
<g clip-path="url(#clip0_143_4408)">
<path fill-rule="evenodd" clip-rule="evenodd" d="M12 2C16.634 2 20.532 5.152 21.667 9.43L21.738 9.717C21.91 10.45 22 11.215 22 12C22 17.523 17.523 22 12 22C6.477 22 2 17.523 2 12C2 6.477 6.477 2 12 2ZM4.004 11.748L4 11.874V12C4.00002 14.0784 4.80894 16.0753 6.25547 17.5677C7.702 19.0602 9.67259 19.931 11.75 19.996L12 20L12.177 19.998C10.887 18.241 10.129 16.082 9.92 13.948C7.79125 13.7372 5.75322 12.9794 4.004 11.748ZM19.99 11.592C17.503 12.976 14.575 13.809 11.934 13.971C12.183 16.074 13.056 18.138 14.457 19.616C16.1343 19.0748 17.586 17.9949 18.5865 16.5439C19.5871 15.0929 20.0804 13.3522 19.99 11.592ZM14.533 4.409C13.153 6.296 12.388 8.753 11.986 11.164C11.9416 11.4311 11.9092 11.7 11.889 11.97C14.426 11.8 17.294 10.927 19.602 9.5C19.2109 8.3158 18.5489 7.23914 17.6688 6.35555C16.7887 5.47196 15.7147 4.8058 14.532 4.41M12 4C10.3119 3.99942 8.66681 4.53287 7.30027 5.52401C5.93373 6.51514 4.91574 7.91317 4.392 9.518C5.94612 10.8457 7.85703 11.6861 9.886 11.934C9.91067 11.5633 9.95333 11.1973 10.014 10.836C10.39 8.576 11.09 6.109 12.392 4.009C12.2627 4.003 12.132 4 12 4Z" fill="#000221"/>
</g>
<defs>
<clipPath id="clip0_143_4408">
<rect width="24" height="24" fill="white"/>
</clipPath>
</defs>
</svg>
