<svg width="24" height="24" viewBox="0 0 24 24" fill="none" xmlns="http://www.w3.org/2000/svg">
<path fill-rule="evenodd" clip-rule="evenodd" d="M4.71199 18.141C3.17499 16.451 2.75499 14.313 2.94199 12.403C3.14799 10.296 4.10899 8.27498 5.35999 7.23198C7.03199 5.83898 8.78799 5.26698 10.312 4.98698C11.0542 4.86025 11.8016 4.76583 12.552 4.70398C12.956 4.66598 13.365 4.62798 13.758 4.52998C14.586 4.32298 15.403 3.98698 16.076 3.45298C16.384 3.20798 16.696 2.95998 17.111 3.00598C17.2602 3.02257 17.4037 3.07254 17.5309 3.15217C17.6582 3.2318 17.7659 3.33906 17.846 3.46598C21.046 8.53298 20.563 13.912 17.89 17.3C16.555 18.991 14.68 20.171 12.493 20.52C10.585 20.823 8.49999 20.484 6.39899 19.384C6.21439 19.9578 6.07726 20.5457 5.98899 21.142C5.95146 21.4045 5.81116 21.6414 5.59897 21.8006C5.38677 21.9597 5.12005 22.028 4.85749 21.9905C4.59492 21.9529 4.35802 21.8127 4.19889 21.6005C4.03977 21.3883 3.97146 21.1215 4.00899 20.859C4.13299 19.994 4.36899 19.073 4.71199 18.141ZM10.672 6.95398C11.376 6.82498 12.037 6.76298 12.679 6.69998C13.203 6.64998 13.731 6.59798 14.243 6.46998C15.1053 6.25871 15.9311 5.91963 16.693 5.46398C18.871 9.58098 18.263 13.598 16.32 16.062C15.272 17.39 13.831 18.282 12.18 18.544C10.697 18.78 8.97999 18.52 7.14999 17.518C8.26199 15.251 10.08 13.078 12.447 11.895C12.6844 11.7764 12.8649 11.5684 12.9489 11.3168C13.0329 11.0651 13.0135 10.7903 12.895 10.553C12.7764 10.3156 12.5684 10.1351 12.3168 10.051C12.0651 9.96702 11.7904 9.98642 11.553 10.105C8.94499 11.409 6.94699 13.664 5.64799 16.069C5.00699 15.019 4.81499 13.798 4.93299 12.597C5.10199 10.869 5.89299 9.39198 6.63999 8.76798C7.96799 7.66098 9.36799 7.19398 10.673 6.95398H10.672Z" fill="#000221"/>
</svg>
