<svg width="24" height="24" viewBox="0 0 24 24" fill="none" xmlns="http://www.w3.org/2000/svg">
<path fill-rule="evenodd" clip-rule="evenodd" d="M21.192 5.46503C21.3795 5.65256 21.4848 5.90686 21.4848 6.17203C21.4848 6.43719 21.3795 6.6915 21.192 6.87903L9.94999 18.122C9.84784 18.2242 9.72656 18.3053 9.59307 18.3606C9.45957 18.4159 9.31649 18.4444 9.17199 18.4444C9.0275 18.4444 8.88442 18.4159 8.75092 18.3606C8.61743 18.3053 8.49615 18.2242 8.39399 18.122L2.80799 12.536C2.71508 12.4431 2.64138 12.3328 2.5911 12.2114C2.54082 12.09 2.51494 11.9599 2.51494 11.8285C2.51494 11.6971 2.54082 11.567 2.5911 11.4456C2.64138 11.3242 2.71508 11.2139 2.80799 11.121C2.9009 11.0281 3.01121 10.9544 3.1326 10.9041C3.25399 10.8539 3.3841 10.828 3.51549 10.828C3.64689 10.828 3.777 10.8539 3.89839 10.9041C4.01978 10.9544 4.13008 11.0281 4.22299 11.121L9.17299 16.071L19.777 5.46503C19.9645 5.27756 20.2188 5.17224 20.484 5.17224C20.7492 5.17224 21.0045 5.27756 21.192 5.46503Z" fill="#000221"/>
</svg>
