<svg width="24" height="24" viewBox="0 0 24 24" fill="none" xmlns="http://www.w3.org/2000/svg">
<path d="M6.85705 2.44497C8.12005 3.36597 9.07605 4.65997 9.89005 5.84897L10.528 6.78697C10.7262 7.07653 10.8168 7.42625 10.7843 7.7756C10.7518 8.12494 10.5982 8.45193 10.35 8.69997L8.99405 10.056L9.13705 10.36C9.48705 11.069 10.091 12.09 11 13C11.6287 13.617 12.3362 14.1483 13.104 14.58L13.471 14.777L13.798 14.939L13.944 15.006L15.299 13.65C15.5479 13.4009 15.8763 13.2473 16.227 13.2161C16.5776 13.1848 16.9281 13.2779 17.217 13.479L18.231 14.182C19.383 14.992 20.586 15.915 21.521 17.113C21.6827 17.3209 21.7855 17.5684 21.8187 17.8296C21.852 18.0908 21.8144 18.3562 21.71 18.598C20.873 20.551 18.755 22.214 16.552 22.132L16.252 22.116L16.019 22.096L15.761 22.066L15.48 22.028L15.175 21.977L14.849 21.913L14.503 21.836L14.137 21.742L13.752 21.632L13.35 21.502C11.504 20.876 9.16105 19.646 6.75705 17.242C4.35305 14.838 3.12405 12.496 2.49805 10.65L2.36805 10.248L2.25805 9.86297L2.16405 9.49697L2.08605 9.15097C2.06354 9.0426 2.04254 8.93392 2.02305 8.82497L1.97305 8.51997L1.93305 8.23897L1.90405 7.98097L1.88405 7.74797L1.86805 7.44797C1.78705 5.25197 3.46805 3.11897 5.41205 2.28597C5.64602 2.18494 5.90225 2.14647 6.15558 2.17435C6.40891 2.20222 6.65063 2.29548 6.85705 2.44497ZM5.93005 4.25297C4.85805 4.81297 3.82005 6.09297 3.86705 7.37397L3.88705 7.70197L3.90905 7.90697L3.93805 8.13697L3.97805 8.38997L4.02905 8.66697L4.09405 8.96497L4.17405 9.28497L4.27005 9.62397L4.38405 9.98197C4.42605 10.104 4.47071 10.229 4.51805 10.357L4.67205 10.749L4.84805 11.156C5.47605 12.538 6.50005 14.156 8.17305 15.828C9.84505 17.5 11.463 18.525 12.845 19.153L13.252 19.329L13.644 19.483C13.772 19.531 13.897 19.5756 14.019 19.617L14.377 19.731L14.717 19.827L15.036 19.907L15.334 19.972L15.611 20.023L15.865 20.063L16.095 20.093L16.299 20.113L16.627 20.133C17.891 20.18 19.181 19.148 19.739 18.09C19.027 17.255 18.143 16.57 17.168 15.88L16.42 15.359L16.23 15.558L15.824 16.001L15.609 16.227C15.023 16.824 14.339 17.331 13.519 17L13.293 16.905L13.017 16.781L12.863 16.708L12.525 16.539L12.154 16.339C11.2161 15.8151 10.3527 15.1677 9.58705 14.414C8.83336 13.6483 8.18591 12.785 7.66205 11.847L7.46205 11.477L7.29205 11.138L7.09605 10.708L7.00005 10.48C6.68905 9.71097 7.11705 9.06197 7.66405 8.49997L7.88805 8.27997L8.44504 7.76697L8.64505 7.57697L8.17205 6.88397C7.46905 5.86397 6.78205 4.94397 5.92905 4.25197L5.93005 4.25297ZM14.993 6.03997L15.109 6.05297C15.837 6.18137 16.5055 6.53691 17.0189 7.06865C17.5324 7.60039 17.8642 8.28101 17.967 9.01297C18.0037 9.26615 17.9419 9.52375 17.7944 9.73277C17.647 9.9418 17.425 10.0864 17.1742 10.1367C16.9233 10.187 16.6628 10.1393 16.446 10.0034C16.2293 9.8675 16.0729 9.65369 16.009 9.40597L15.986 9.29097C15.9458 9.00407 15.8234 8.73496 15.6335 8.51616C15.4436 8.29735 15.1944 8.13821 14.916 8.05797L14.761 8.02297C14.5099 7.97847 14.2853 7.83971 14.1331 7.63508C13.981 7.43045 13.9127 7.17541 13.9423 6.92212C13.972 6.66883 14.0973 6.43643 14.2926 6.27245C14.4879 6.10848 14.7385 6.02531 14.993 6.03997ZM15 2.99997C16.5913 2.99997 18.1175 3.63211 19.2427 4.75733C20.3679 5.88255 21 7.40867 21 8.99997C20.9998 9.25485 20.9022 9.5 20.7272 9.68534C20.5522 9.87068 20.3131 9.98221 20.0587 9.99714C19.8042 10.0121 19.5537 9.9293 19.3582 9.76571C19.1628 9.60212 19.0371 9.37007 19.007 9.11697L19 8.99997C18.9999 7.98453 18.6136 7.00714 17.9195 6.266C17.2253 5.52487 16.2753 5.07548 15.262 5.00897L15 4.99997C14.7348 4.99997 14.4805 4.89461 14.2929 4.70708C14.1054 4.51954 14 4.26519 14 3.99997C14 3.73475 14.1054 3.4804 14.2929 3.29286C14.4805 3.10533 14.7348 2.99997 15 2.99997Z" fill="#000221"/>
</svg>
