<svg width="24" height="24" viewBox="0 0 24 24" fill="none" xmlns="http://www.w3.org/2000/svg">
<path fill-rule="evenodd" clip-rule="evenodd" d="M12 2C13.6575 2 15.274 2.51481 16.6262 3.47328C17.9784 4.43175 18.9996 5.78655 19.5485 7.35047C20.0974 8.91439 20.1471 10.6102 19.6905 12.2035C19.234 13.7969 18.2939 15.2091 17 16.245V20.855C17 21.0327 16.9569 21.2078 16.8745 21.3652C16.7921 21.5227 16.6727 21.6578 16.5266 21.759C16.3806 21.8602 16.2122 21.9246 16.0358 21.9465C15.8595 21.9685 15.6804 21.9474 15.514 21.885L12 20.569L8.486 21.887C8.31951 21.9494 8.14037 21.9705 7.96394 21.9485C7.78751 21.9265 7.61904 21.8621 7.47295 21.7607C7.32687 21.6594 7.20753 21.5241 7.12516 21.3666C7.0428 21.209 6.99985 21.0338 7 20.856V16.246C5.70575 15.2102 4.76523 13.7979 4.30845 12.2044C3.85168 10.6109 3.9012 8.91479 4.45018 7.35064C4.99916 5.78648 6.02049 4.43148 7.37297 3.47297C8.72546 2.51445 10.3423 1.99974 12 2ZM15 17.419C14.0466 17.8036 13.028 18.0009 12 18C10.972 18.0009 9.95338 17.8036 9 17.419V19.557L11.298 18.695C11.7506 18.5253 12.2494 18.5253 12.702 18.695L15 19.557V17.419ZM12 4C10.4087 4 8.88258 4.63214 7.75736 5.75736C6.63214 6.88258 6 8.4087 6 10C6 11.5913 6.63214 13.1174 7.75736 14.2426C8.88258 15.3679 10.4087 16 12 16C13.5913 16 15.1174 15.3679 16.2426 14.2426C17.3679 13.1174 18 11.5913 18 10C18 8.4087 17.3679 6.88258 16.2426 5.75736C15.1174 4.63214 13.5913 4 12 4ZM12 6C13.0609 6 14.0783 6.42143 14.8284 7.17157C15.5786 7.92172 16 8.93913 16 10C16 11.0609 15.5786 12.0783 14.8284 12.8284C14.0783 13.5786 13.0609 14 12 14C10.9391 14 9.92172 13.5786 9.17157 12.8284C8.42143 12.0783 8 11.0609 8 10C8 8.93913 8.42143 7.92172 9.17157 7.17157C9.92172 6.42143 10.9391 6 12 6ZM12 8C11.4696 8 10.9609 8.21071 10.5858 8.58579C10.2107 8.96086 10 9.46957 10 10C10 10.5304 10.2107 11.0391 10.5858 11.4142C10.9609 11.7893 11.4696 12 12 12C12.5304 12 13.0391 11.7893 13.4142 11.4142C13.7893 11.0391 14 10.5304 14 10C14 9.46957 13.7893 8.96086 13.4142 8.58579C13.0391 8.21071 12.5304 8 12 8Z" fill="#000221"/>
</svg>
