<svg width="24" height="24" viewBox="0 0 24 24" fill="none" xmlns="http://www.w3.org/2000/svg">
<path fill-rule="evenodd" clip-rule="evenodd" d="M4 7V4.982C4 4.002 4.554 3.105 5.431 2.666L5.715 2.524C6.73509 2.01392 7.86738 1.76942 9.00705 1.81312C10.1467 1.85681 11.257 2.18731 12.235 2.774C12.8261 3.12882 13.4869 3.35159 14.1722 3.42702C14.8574 3.50245 15.5509 3.42876 16.205 3.211L19.494 2.115C19.6877 2.05055 19.8956 2.04129 20.0943 2.08825C20.293 2.13522 20.4747 2.23656 20.6191 2.38094C20.7634 2.52531 20.8648 2.70702 20.9117 2.90572C20.9587 3.10442 20.9495 3.31227 20.885 3.506L19.065 8.969L20.889 13.53C20.9447 13.6691 20.9713 13.8182 20.9673 13.968C20.9633 14.1178 20.9287 14.2652 20.8657 14.4012C20.8027 14.5371 20.7126 14.6588 20.6008 14.7587C20.4891 14.8586 20.3582 14.9346 20.216 14.982L16.838 16.108C15.9102 16.4173 14.9265 16.5222 13.9544 16.4155C12.9822 16.3088 12.0446 15.9931 11.206 15.49C10.5165 15.0762 9.73374 14.843 8.93019 14.8121C8.12665 14.7812 7.32828 14.9534 6.609 15.313L6 15.618V21C6 21.2652 5.89464 21.5196 5.70711 21.7071C5.51957 21.8946 5.26522 22 5 22C4.73478 22 4.48043 21.8946 4.29289 21.7071C4.10536 21.5196 4 21.2652 4 21V15V7Z" fill="#000221"/>
</svg>
