<svg width="29" height="29" viewBox="0 0 29 29" fill="none" xmlns="http://www.w3.org/2000/svg">
<path d="M4.83333 3.625C4.51286 3.625 4.20552 3.75231 3.97891 3.97891C3.75231 4.20552 3.625 4.51286 3.625 4.83333C3.625 5.1538 3.75231 5.46115 3.97891 5.68775C4.20552 5.91436 4.51286 6.04167 4.83333 6.04167H24.1667C24.4871 6.04167 24.7945 5.91436 25.0211 5.68775C25.2477 5.46115 25.375 5.1538 25.375 4.83333C25.375 4.51286 25.2477 4.20552 25.0211 3.97891C24.7945 3.75231 24.4871 3.625 24.1667 3.625H4.83333ZM4.83333 9.66667C4.51286 9.66667 4.20552 9.79397 3.97891 10.0206C3.75231 10.2472 3.625 10.5545 3.625 10.875C3.625 11.1955 3.75231 11.5028 3.97891 11.7294C4.20552 11.956 4.51286 12.0833 4.83333 12.0833H24.1667C24.4871 12.0833 24.7945 11.956 25.0211 11.7294C25.2477 11.5028 25.375 11.1955 25.375 10.875C25.375 10.5545 25.2477 10.2472 25.0211 10.0206C24.7945 9.79397 24.4871 9.66667 24.1667 9.66667H4.83333ZM3.625 16.9167C3.625 16.5962 3.75231 16.2889 3.97891 16.0622C4.20552 15.8356 4.51286 15.7083 4.83333 15.7083H24.1667C24.4871 15.7083 24.7945 15.8356 25.0211 16.0622C25.2477 16.2889 25.375 16.5962 25.375 16.9167C25.375 17.2371 25.2477 17.5445 25.0211 17.7711C24.7945 17.9977 24.4871 18.125 24.1667 18.125H4.83333C4.51286 18.125 4.20552 17.9977 3.97891 17.7711C3.75231 17.5445 3.625 17.2371 3.625 16.9167ZM4.83333 21.75C4.51286 21.75 4.20552 21.8773 3.97891 22.1039C3.75231 22.3305 3.625 22.6379 3.625 22.9583C3.625 23.2788 3.75231 23.5861 3.97891 23.8128C4.20552 24.0394 4.51286 24.1667 4.83333 24.1667H24.1667C24.4871 24.1667 24.7945 24.0394 25.0211 23.8128C25.2477 23.5861 25.375 23.2788 25.375 22.9583C25.375 22.6379 25.2477 22.3305 25.0211 22.1039C24.7945 21.8773 24.4871 21.75 24.1667 21.75H4.83333Z" fill="black"/>
</svg>
