<svg width="24" height="24" viewBox="0 0 24 24" fill="none" xmlns="http://www.w3.org/2000/svg">
<g clip-path="url(#clip0_285_5323)">
<path fill-rule="evenodd" clip-rule="evenodd" d="M6.293 6.29303C6.48053 6.10556 6.73484 6.00024 7 6.00024C7.26516 6.00024 7.51947 6.10556 7.707 6.29303L12.707 11.293C12.8945 11.4806 12.9998 11.7349 12.9998 12C12.9998 12.2652 12.8945 12.5195 12.707 12.707L7.707 17.707C7.5184 17.8892 7.2658 17.99 7.0036 17.9877C6.7414 17.9854 6.49059 17.8803 6.30518 17.6948C6.11977 17.5094 6.0146 17.2586 6.01233 16.9964C6.01005 16.7342 6.11084 16.4816 6.293 16.293L10.586 12L6.293 7.70703C6.10553 7.5195 6.00021 7.26519 6.00021 7.00003C6.00021 6.73487 6.10553 6.48056 6.293 6.29303ZM12.293 6.29303C12.4805 6.10556 12.7348 6.00024 13 6.00024C13.2652 6.00024 13.5195 6.10556 13.707 6.29303L18.707 11.293C18.8945 11.4806 18.9998 11.7349 18.9998 12C18.9998 12.2652 18.8945 12.5195 18.707 12.707L13.707 17.707C13.5184 17.8892 13.2658 17.99 13.0036 17.9877C12.7414 17.9854 12.4906 17.8803 12.3052 17.6948C12.1198 17.5094 12.0146 17.2586 12.0123 16.9964C12.01 16.7342 12.1108 16.4816 12.293 16.293L16.586 12L12.293 7.70703C12.1055 7.5195 12.0002 7.26519 12.0002 7.00003C12.0002 6.73487 12.1055 6.48056 12.293 6.29303Z" fill="#000221"/>
</g>
<defs>
<clipPath id="clip0_285_5323">
<rect width="24" height="24" fill="white"/>
</clipPath>
</defs>
</svg>
