<svg width="16" height="16" viewBox="0 0 16 16" fill="none" xmlns="http://www.w3.org/2000/svg">
<path d="M9.5 1L0.5 10L6 15.5L15 6.5V1H9.5ZM12 5C11.8022 5 11.6089 4.94135 11.4444 4.83147C11.28 4.72159 11.1518 4.56541 11.0761 4.38268C11.0004 4.19996 10.9806 3.99889 11.0192 3.80491C11.0578 3.61093 11.153 3.43275 11.2929 3.29289C11.4327 3.15304 11.6109 3.0578 11.8049 3.01921C11.9989 2.98063 12.2 3.00043 12.3827 3.07612C12.5654 3.15181 12.7216 3.27998 12.8315 3.44443C12.9414 3.60888 13 3.80222 13 4C13 4.26522 12.8946 4.51957 12.7071 4.70711C12.5196 4.89464 12.2652 5 12 5Z" fill="black"/>
</svg>
