<svg width="24" height="24" viewBox="0 0 24 24" fill="none" xmlns="http://www.w3.org/2000/svg">
<path fill-rule="evenodd" clip-rule="evenodd" d="M17.817 6.9889C17.464 6.4809 16.52 5.7669 14.991 6.0749C14.099 6.2539 13.566 6.6949 13.227 7.2769C12.866 7.8969 12.691 8.7399 12.691 9.7209C12.691 9.98612 12.5856 10.2405 12.3981 10.428C12.2106 10.6155 11.9562 10.7209 11.691 10.7209C9.325 10.7209 7.073 10.0179 5.178 8.1169C5.03476 8.88818 4.97841 9.67308 5.01 10.4569C5.063 11.5429 5.322 12.6319 5.937 13.5649C6.542 14.4819 7.537 15.3219 9.201 15.8499C9.36405 15.9016 9.51111 15.9943 9.62811 16.1191C9.74512 16.2439 9.82816 16.3966 9.86929 16.5626C9.91042 16.7287 9.90828 16.9025 9.86306 17.0675C9.81783 17.2324 9.73105 17.383 9.611 17.5049C9.07815 18.0518 8.47405 18.5244 7.815 18.9099C8.875 19.0199 9.897 19.0279 10.845 18.9419C12.765 18.7679 14.294 18.2189 15.25 17.4419C17.263 15.8099 18.34 13.3759 18.14 9.2979C18.106 8.6279 18.753 7.9049 19.065 7.3559C18.594 7.4439 18.122 7.4279 17.817 6.9889ZM4.594 4.9839C4.77505 4.96286 4.95841 4.99171 5.12426 5.06732C5.29011 5.14293 5.43214 5.26243 5.535 5.4129C7.011 7.5719 8.783 8.4699 10.75 8.6739C10.846 7.8329 11.073 7.0019 11.5 6.2699C12.126 5.1959 13.144 4.4059 14.598 4.1139C16.608 3.7099 18.138 4.4379 19.025 5.3289L20.817 4.9939C21.0045 4.95877 21.1982 4.97801 21.3751 5.04935C21.5521 5.1207 21.7049 5.24117 21.8156 5.39655C21.9263 5.55193 21.9902 5.73574 21.9999 5.92628C22.0095 6.11682 21.9645 6.30614 21.87 6.4719L20.15 9.4939C20.307 13.8549 19.095 16.8989 16.511 18.9959C15.141 20.1079 13.179 20.7389 11.026 20.9339C8.856 21.1299 6.403 20.8929 3.965 20.1809C3.75669 20.1201 3.5738 19.9933 3.44392 19.8194C3.31405 19.6456 3.24424 19.4343 3.24503 19.2173C3.24582 19.0003 3.31717 18.7894 3.4483 18.6166C3.57944 18.4437 3.76325 18.3181 3.972 18.2589C5.198 17.9099 6.132 17.6089 6.975 17.0819C5.776 16.4459 4.893 15.6139 4.268 14.6659C3.4 13.3479 3.078 11.8779 3.014 10.5529C2.95 9.2279 3.141 7.9999 3.343 7.1149C3.458 6.6099 3.592 6.1039 3.777 5.6199C3.84225 5.44929 3.953 5.29982 4.0972 5.1877C4.24141 5.07558 4.41257 5.0051 4.594 4.9839Z" fill="black"/>
</svg>
