<svg width="24" height="24" viewBox="0 0 24 24" fill="none" xmlns="http://www.w3.org/2000/svg">
<path fill-rule="evenodd" clip-rule="evenodd" d="M18.165 2.7651L18.42 2.7971C19.094 2.8901 19.986 3.01509 20.491 3.52109C20.905 3.93409 21.064 4.60609 21.159 5.20609L21.215 5.5921C21.341 6.5021 21.374 7.69409 21.159 9.01809C20.735 11.6311 19.344 14.7491 15.851 17.1631C15.832 17.3511 15.831 17.5411 15.835 17.7311L15.845 18.0151C15.861 18.4521 15.877 18.8891 15.755 19.3131C15.565 19.9731 14.888 20.4081 14.255 20.7201L13.945 20.8671L13.545 21.0431C12.797 21.3611 11.787 21.6871 11.154 21.0531C10.774 20.6741 10.618 20.1181 10.491 19.5651L10.444 19.3581C10.3903 19.0969 10.3235 18.8386 10.244 18.5841C10.194 18.4374 10.14 18.2891 10.082 18.1391C10.0182 18.2175 9.95042 18.2926 9.879 18.3641C9.534 18.7091 9.019 18.9501 8.595 19.1191C8.132 19.3021 7.608 19.4621 7.123 19.5941L6.874 19.6601L6.397 19.7791L5.965 19.8791L5.448 19.9891L5.125 20.0521C4.96391 20.0819 4.79798 20.0721 4.64153 20.0235C4.48507 19.9749 4.34279 19.889 4.22694 19.7732C4.1111 19.6573 4.02518 19.515 3.97658 19.3586C3.92798 19.2021 3.91818 19.0362 3.948 18.8751L4.034 18.4441L4.188 17.7461L4.312 17.2361L4.406 16.8761C4.538 16.3921 4.698 15.8681 4.882 15.4061C5.05 14.9811 5.291 14.4661 5.636 14.1211L5.716 14.0441L5.652 14.0181C5.48108 13.9532 5.30797 13.8941 5.133 13.8411L4.856 13.7561C4.162 13.5461 3.42 13.3201 2.959 12.8581C2.399 12.2991 2.588 11.4481 2.858 10.7401L2.968 10.4661L3.145 10.0661L3.292 9.75609C3.604 9.12409 4.039 8.44709 4.699 8.25709C5.049 8.15709 5.413 8.15109 5.779 8.1611L5.999 8.1681C6.285 8.1781 6.57 8.18909 6.849 8.16209C9.263 4.66809 12.381 3.2771 14.994 2.8531C16.0422 2.68117 17.1089 2.65157 18.165 2.7651ZM8.353 15.4401C8.19567 15.3235 8.00756 15.2556 7.81201 15.245C7.61646 15.2343 7.42209 15.2813 7.253 15.3801L7.143 15.4541L7.05 15.5371L6.925 15.6951C6.665 16.0711 6.517 16.5911 6.402 17.0771L6.294 17.5451L6.243 17.7581L6.434 17.7121L6.852 17.6161C7.43 17.4811 8.071 17.3061 8.465 16.9511C8.63631 16.7799 8.73966 16.5523 8.75584 16.3106C8.77203 16.069 8.69995 15.8296 8.553 15.6371L8.471 15.5431L8.447 15.5201L8.353 15.4401ZM15.536 8.46609C15.3503 8.28034 15.1299 8.13298 14.8872 8.03242C14.6446 7.93187 14.3845 7.88009 14.1219 7.88004C13.8592 7.88 13.5991 7.93168 13.3564 8.03215C13.1138 8.13262 12.8933 8.27991 12.7075 8.46559C12.5217 8.65128 12.3744 8.87174 12.2738 9.11438C12.1733 9.35702 12.1215 9.61709 12.1215 9.87974C12.1214 10.1424 12.1731 10.4025 12.2736 10.6452C12.374 10.8878 12.5213 11.1083 12.707 11.2941C13.082 11.6692 13.5907 11.8801 14.1211 11.8801C14.6516 11.8802 15.1604 11.6696 15.5355 11.2946C15.9107 10.9196 16.1215 10.4109 16.1216 9.88045C16.1216 9.35 15.911 8.84124 15.536 8.46609Z" fill="#000221"/>
</svg>
