<svg width="24" height="24" viewBox="0 0 24 24" fill="none" xmlns="http://www.w3.org/2000/svg">
<path d="M4.594 4.9839C4.77505 4.96286 4.95841 4.99171 5.12426 5.06732C5.29011 5.14293 5.43214 5.26243 5.535 5.4129C7.011 7.5719 8.783 8.4699 10.75 8.6739C10.846 7.8329 11.073 7.0019 11.5 6.2699C12.126 5.1959 13.144 4.4059 14.598 4.1139C16.608 3.7099 18.138 4.4379 19.025 5.3289L20.817 4.9939C21.0045 4.95877 21.1982 4.97801 21.3751 5.04935C21.5521 5.1207 21.7049 5.24117 21.8156 5.39655C21.9263 5.55193 21.9902 5.73574 21.9999 5.92628C22.0095 6.11682 21.9645 6.30614 21.87 6.4719L20.15 9.4939C20.307 13.8549 19.095 16.8989 16.511 18.9959C15.141 20.1079 13.179 20.7389 11.026 20.9339C8.856 21.1299 6.403 20.8929 3.965 20.1809C3.75669 20.1201 3.5738 19.9933 3.44392 19.8194C3.31405 19.6456 3.24424 19.4343 3.24503 19.2173C3.24582 19.0003 3.31717 18.7894 3.4483 18.6166C3.57944 18.4437 3.76325 18.3181 3.972 18.2589C5.198 17.9099 6.132 17.6089 6.975 17.0819C5.776 16.4459 4.893 15.6139 4.268 14.6659C3.4 13.3479 3.078 11.8779 3.014 10.5529C2.95 9.2279 3.141 7.9999 3.343 7.1149C3.458 6.6099 3.592 6.1039 3.777 5.6199C3.84225 5.44929 3.953 5.29982 4.0972 5.1877C4.24141 5.07558 4.41257 5.0051 4.594 4.9839Z" fill="black"/>
</svg>
