<svg width="29" height="29" viewBox="0 0 29 29" fill="none" xmlns="http://www.w3.org/2000/svg">
<path fill-rule="evenodd" clip-rule="evenodd" d="M11.3644 3.50066C12.2046 2.78464 13.2647 2.37786 14.3683 2.34797C15.4718 2.31807 16.5524 2.66686 17.4302 3.33632L17.6356 3.50066L18.09 3.88732C18.4207 4.16963 18.8214 4.35748 19.25 4.43107L19.465 4.45766L20.0607 4.50599C21.1643 4.59404 22.2041 5.05825 23.0065 5.821C23.8088 6.58375 24.325 7.59882 24.4687 8.69649L24.4941 8.93816L24.5425 9.53507C24.5767 9.96804 24.7269 10.3838 24.9774 10.7386L25.1104 10.9102L25.4995 11.3645C26.2155 12.2048 26.6222 13.2648 26.6521 14.3684C26.682 15.472 26.3333 16.5525 25.6638 17.4303L25.4995 17.6357L25.1116 18.0901C24.8293 18.4208 24.6414 18.8215 24.5678 19.2501L24.5412 19.4652L24.4941 20.0609C24.4061 21.1644 23.9419 22.2043 23.1791 23.0066C22.4164 23.8089 21.4013 24.3251 20.3036 24.4689L20.0607 24.4942L19.465 24.5426C19.0321 24.5768 18.6163 24.7271 18.2615 24.9776L18.09 25.1117L17.6344 25.4984C16.7943 26.2146 15.7343 26.6215 14.6307 26.6517C13.5271 26.6818 12.4465 26.3332 11.5686 25.6639L11.3644 25.4996L10.91 25.1117C10.5793 24.8294 10.1786 24.6415 9.75003 24.5679L9.53495 24.5426L8.93924 24.4942C7.83571 24.4062 6.79584 23.942 5.9935 23.1792C5.19116 22.4165 4.67497 21.4014 4.53124 20.3037L4.50587 20.0621L4.45753 19.4652C4.42331 19.0322 4.27304 18.6164 4.02253 18.2617L3.88841 18.0901L3.50053 17.6345C2.78452 16.7943 2.37774 15.7342 2.34784 14.6306C2.31795 13.5271 2.66673 12.4465 3.3362 11.5687L3.50053 11.3645L3.8872 10.9102C4.16951 10.5794 4.35736 10.1787 4.43095 9.75016L4.45753 9.53507L4.50587 8.93936C4.59392 7.83583 5.05812 6.79596 5.82088 5.99362C6.58363 5.19128 7.59869 4.67509 8.69637 4.53136L8.93803 4.50599L9.53495 4.45766C9.96792 4.42344 10.3837 4.27317 10.7385 4.02266L10.91 3.88853L11.3644 3.50066ZM17.5208 15.7084C17.0401 15.7084 16.5791 15.8994 16.2392 16.2393C15.8993 16.5792 15.7083 17.0402 15.7083 17.5209C15.7083 18.0017 15.8993 18.4627 16.2392 18.8026C16.5791 19.1425 17.0401 19.3334 17.5208 19.3334C18.0015 19.3334 18.4625 19.1425 18.8025 18.8026C19.1424 18.4627 19.3333 18.0017 19.3333 17.5209C19.3333 17.0402 19.1424 16.5792 18.8025 16.2393C18.4625 15.8994 18.0015 15.7084 17.5208 15.7084ZM17.2707 10.0208L10.0207 17.2708C9.90529 17.3823 9.81324 17.5156 9.74991 17.663C9.68658 17.8105 9.65325 17.969 9.65186 18.1295C9.65046 18.2899 9.68104 18.449 9.74179 18.5975C9.80255 18.746 9.89227 18.8809 10.0057 18.9944C10.1192 19.1078 10.2541 19.1976 10.4026 19.2583C10.5511 19.3191 10.7102 19.3496 10.8706 19.3483C11.0311 19.3469 11.1896 19.3135 11.3371 19.2502C11.4845 19.1869 11.6178 19.0948 11.7293 18.9794L18.9793 11.7294C19.1994 11.5015 19.3212 11.1963 19.3184 10.8795C19.3157 10.5626 19.1886 10.2596 18.9646 10.0355C18.7405 9.81151 18.4375 9.68443 18.1206 9.68168C17.8038 9.67892 17.4986 9.80072 17.2707 10.0208ZM11.4792 9.66678C10.9985 9.66678 10.5374 9.85774 10.1975 10.1977C9.85762 10.5376 9.66666 10.9986 9.66666 11.4793C9.66666 11.96 9.85762 12.421 10.1975 12.7609C10.5374 13.1008 10.9985 13.2918 11.4792 13.2918C11.9599 13.2918 12.4209 13.1008 12.7608 12.7609C13.1007 12.421 13.2917 11.96 13.2917 11.4793C13.2917 10.9986 13.1007 10.5376 12.7608 10.1977C12.4209 9.85774 11.9599 9.66678 11.4792 9.66678Z" fill="black"/>
</svg>
