<svg width="31" height="31" viewBox="0 0 31 31" fill="none" xmlns="http://www.w3.org/2000/svg">
<path d="M21.8292 3.875C22.1793 3.87482 22.5172 4.00392 22.7779 4.23753C23.0387 4.47114 23.2041 4.79281 23.2423 5.14083L23.25 5.29583V9.04167H24.5417C25.5301 9.04161 26.4811 9.41925 27.2003 10.0973C27.9194 10.7754 28.3522 11.7026 28.4102 12.6893L28.4167 12.9167V21.9583C28.4169 22.6101 28.1707 23.2378 27.7276 23.7157C27.2844 24.1936 26.677 24.4863 26.0271 24.5352L25.8333 24.5417H23.25V26.9958C23.2502 27.3459 23.1211 27.6838 22.8875 27.9446C22.6539 28.2054 22.3322 28.3707 21.9842 28.4089L21.8292 28.4167H9.17084C8.82073 28.4168 8.48287 28.2877 8.22209 28.0541C7.9613 27.8205 7.79596 27.4989 7.75776 27.1508L7.75001 26.9958V24.5417H5.16668C4.51493 24.5419 3.88719 24.2957 3.4093 23.8526C2.93141 23.4094 2.63868 22.802 2.5898 22.1521L2.58334 21.9583V12.9167C2.58329 11.9283 2.96093 10.9772 3.639 10.2581C4.31707 9.53895 5.24432 9.10611 6.23101 9.04812L6.45834 9.04167H7.75001V5.29583C7.74983 4.94572 7.87893 4.60786 8.11254 4.34708C8.34615 4.08629 8.66782 3.92094 9.01584 3.88275L9.17084 3.875H21.8292ZM20.6667 20.6667H10.3333V25.8333H20.6667V20.6667ZM24.5417 11.625H6.45834C6.14197 11.625 5.83662 11.7412 5.6002 11.9514C5.36378 12.1617 5.21273 12.4513 5.17572 12.7655L5.16668 12.9167V21.9583H7.75001V19.5042C7.74983 19.154 7.87893 18.8162 8.11254 18.5554C8.34615 18.2946 8.66782 18.1293 9.01584 18.0911L9.17084 18.0833H21.8292C22.1793 18.0832 22.5172 18.2122 22.7779 18.4459C23.0387 18.6795 23.2041 19.0011 23.2423 19.3492L23.25 19.5042V21.9583H25.8333V12.9167C25.8333 12.5741 25.6973 12.2456 25.455 12.0033C25.2128 11.7611 24.8842 11.625 24.5417 11.625ZM21.9583 12.9167C22.2876 12.917 22.6042 13.0431 22.8436 13.2691C23.083 13.4951 23.2271 13.804 23.2464 14.1326C23.2657 14.4613 23.1587 14.7849 22.9474 15.0374C22.7361 15.2898 22.4364 15.4521 22.1095 15.491L21.9583 15.5H19.375C19.0458 15.4996 18.7291 15.3736 18.4897 15.1476C18.2504 14.9216 18.1063 14.6127 18.087 14.284C18.0677 13.9554 18.1746 13.6318 18.3859 13.3793C18.5972 13.1268 18.897 12.9646 19.2239 12.9257L19.375 12.9167H21.9583ZM20.6667 6.45833H10.3333V9.04167H20.6667V6.45833Z" fill="black"/>
</svg>
