<svg width="24" height="24" viewBox="0 0 24 24" fill="none" xmlns="http://www.w3.org/2000/svg">
<path fill-rule="evenodd" clip-rule="evenodd" d="M11.298 2.195C11.6926 2.04735 12.1238 2.0281 12.53 2.14L12.702 2.195L19.702 4.82C20.0569 4.95309 20.3667 5.1843 20.5953 5.4867C20.8239 5.7891 20.9618 6.15022 20.993 6.528L21 6.693V12.056C21 13.6764 20.5624 15.2668 19.7336 16.6592C18.9048 18.0516 17.7154 19.1944 16.291 19.967L16.025 20.106L12.671 21.783C12.4863 21.8752 12.2846 21.9283 12.0785 21.939C11.8723 21.9496 11.6662 21.9176 11.473 21.845L11.329 21.783L7.975 20.106C6.52561 19.3813 5.29878 18.2787 4.424 16.9146C3.54923 15.5505 3.05898 13.9756 3.005 12.356L3 12.056V6.693C3.00001 6.31413 3.10763 5.94305 3.31033 5.62297C3.51304 5.30288 3.8025 5.04696 4.145 4.885L4.298 4.82L11.298 2.195ZM12 4.068L5 6.693V12.056C5.00003 13.311 5.33745 14.5429 5.97696 15.6228C6.61646 16.7026 7.53451 17.5907 8.635 18.194L8.87 18.317L12 19.882L15.13 18.317C16.2527 17.7557 17.2039 16.9029 17.8839 15.8479C18.5638 14.7928 18.9476 13.5743 18.995 12.32L19 12.056V6.693L12 4.068ZM11.508 7.516C11.7788 7.41464 12.0743 7.39962 12.354 7.473L12.492 7.516L15.292 8.566C15.5376 8.65812 15.7524 8.81741 15.9119 9.02568C16.0714 9.23396 16.1691 9.48286 16.194 9.744L16.2 9.877V12.022C16.2 12.7653 16.0027 13.4953 15.6283 14.1374C15.254 14.7796 14.7159 15.3108 14.069 15.677L13.879 15.779L12.537 16.449C12.3916 16.5218 12.233 16.5643 12.0707 16.5739C11.9085 16.5835 11.7459 16.5601 11.593 16.505L11.463 16.45L10.122 15.779C9.45728 15.4466 8.89266 14.9438 8.48577 14.3219C8.07889 13.7 7.84432 12.9812 7.806 12.239L7.8 12.022V9.877C7.80003 9.61474 7.87373 9.35776 8.0127 9.13534C8.15166 8.91293 8.35031 8.73402 8.586 8.619L8.708 8.566L11.508 7.516ZM12 9.468L9.8 10.293V12.023C9.80011 12.4032 9.89873 12.7768 10.0863 13.1075C10.2738 13.4383 10.5438 13.7147 10.87 13.91L11.016 13.99L12 14.482L12.984 13.99C13.3243 13.8199 13.6146 13.5644 13.8267 13.2486C14.0388 12.9328 14.1653 12.5673 14.194 12.188L14.2 12.022V10.293L12 9.468Z" fill="#000221"/>
</svg>
