<svg width="28" height="28" viewBox="0 0 28 28" fill="none" xmlns="http://www.w3.org/2000/svg">
<path fill-rule="evenodd" clip-rule="evenodd" d="M10.5 2.33331C11.3927 2.33326 12.2518 2.67436 12.9013 3.28681C13.5508 3.89926 13.9418 4.73677 13.9942 5.62798L14 5.83331V6.49598C14.1968 6.39385 14.4186 6.34993 14.6395 6.36935C14.8604 6.38877 15.0712 6.47074 15.2472 6.60565L15.3627 6.70715C15.5537 6.8945 15.6745 7.14181 15.7048 7.40763C15.7352 7.67346 15.6733 7.94165 15.5294 8.16725C15.3856 8.39285 15.1686 8.56215 14.9148 8.64679C14.661 8.73143 14.3858 8.72626 14.1353 8.63215L14 8.57265V11.5021C14.0078 11.5566 14.0117 11.6118 14.0117 11.6678L14.0082 11.7518L14 11.8335V14.756C14.2355 14.6289 14.5074 14.5867 14.7704 14.6363C15.0333 14.6859 15.2712 14.8244 15.4441 15.0285C15.6171 15.2327 15.7146 15.4901 15.7204 15.7576C15.7262 16.0251 15.6398 16.2864 15.4758 16.4978L15.3673 16.6191C15.9916 17.5644 16.3272 18.671 16.333 19.8038C16.3389 20.9366 16.0148 22.0465 15.4003 22.9982C14.7858 23.9499 13.9075 24.702 12.8727 25.1628C11.8378 25.6236 10.6912 25.7731 9.57279 25.5931C8.45438 25.4131 7.41258 24.9113 6.57459 24.1491C5.73661 23.3868 5.13869 22.3971 4.85386 21.3007C4.56902 20.2043 4.60958 19.0486 4.9706 17.9749C5.33161 16.9012 5.99745 15.9558 6.88682 15.2541C6.91725 15.2308 6.94468 15.2037 6.96849 15.1736L6.99999 15.1153V5.83331C6.99999 4.90506 7.36874 4.01482 8.02512 3.35844C8.68149 2.70206 9.57173 2.33331 10.5 2.33331ZM10.5 4.66665C10.2142 4.66668 9.93843 4.7716 9.72489 4.96148C9.51135 5.15137 9.37492 5.41302 9.34149 5.69681L9.33332 5.83331V15.1176C9.33332 15.9051 8.94016 16.548 8.46532 16.9726L8.33349 17.0846C7.76961 17.529 7.35602 18.136 7.14881 18.8234C6.94159 19.5108 6.95076 20.2453 7.17509 20.9272C7.39941 21.6092 7.82803 22.2057 8.40283 22.6359C8.97763 23.066 9.67081 23.309 10.3884 23.3319C11.1059 23.3547 11.8132 23.1564 12.4142 22.7637C13.0152 22.371 13.4809 21.803 13.7482 21.1367C14.0155 20.4704 14.0714 19.738 13.9084 19.0388C13.7454 18.3396 13.3713 17.7075 12.8368 17.2281L12.6665 17.0846C12.1788 16.6996 11.7448 16.0895 11.676 15.3288L11.6667 15.12V5.83331C11.6667 5.52389 11.5437 5.22715 11.3249 5.00836C11.1062 4.78956 10.8094 4.66665 10.5 4.66665ZM18.6667 16.3216C18.9526 16.3217 19.2285 16.4268 19.4421 16.6169C19.6557 16.807 19.792 17.069 19.8252 17.353L19.8333 17.5C19.833 17.7973 19.7191 18.0834 19.515 18.2996C19.3109 18.5158 19.0319 18.6459 18.735 18.6633C18.4382 18.6808 18.1459 18.5842 17.9179 18.3933C17.6898 18.2025 17.5433 17.9318 17.5082 17.6365L17.5 17.4883C17.5 17.1789 17.6229 16.8821 17.8417 16.6634C18.0605 16.4446 18.3572 16.3216 18.6667 16.3216ZM23.6133 14.9566C23.8254 15.1652 23.9499 15.4469 23.9612 15.7441C23.9725 16.0414 23.8699 16.3317 23.6743 16.5558C23.4786 16.7799 23.2048 16.9208 22.9087 16.9497C22.6127 16.9786 22.3168 16.8933 22.0815 16.7113L21.9625 16.6063C21.75 16.3863 21.6324 16.0916 21.635 15.7857C21.6377 15.4798 21.7604 15.1872 21.9767 14.9709C22.193 14.7545 22.4856 14.6319 22.7915 14.6292C23.0974 14.6265 23.3933 14.7441 23.6133 14.9566ZM18.6667 8.16665C19.5949 8.16665 20.4852 8.5354 21.1415 9.19177C21.7979 9.84815 22.1667 10.7384 22.1667 11.6666C22.1667 12.5949 21.7979 13.4851 21.1415 14.1415C20.4852 14.7979 19.5949 15.1666 18.6667 15.1666C17.7384 15.1666 16.8482 14.7979 16.1918 14.1415C15.5354 13.4851 15.1667 12.5949 15.1667 11.6666C15.1667 10.7384 15.5354 9.84815 16.1918 9.19177C16.8482 8.5354 17.7384 8.16665 18.6667 8.16665ZM18.6667 10.5C18.3572 10.5 18.0605 10.6229 17.8417 10.8417C17.6229 11.0605 17.5 11.3572 17.5 11.6666C17.5 11.9761 17.6229 12.2728 17.8417 12.4916C18.0605 12.7104 18.3572 12.8333 18.6667 12.8333C18.9761 12.8333 19.2728 12.7104 19.4916 12.4916C19.7104 12.2728 19.8333 11.9761 19.8333 11.6666C19.8333 11.3572 19.7104 11.0605 19.4916 10.8417C19.2728 10.6229 18.9761 10.5 18.6667 10.5ZM24.5 10.5C24.7973 10.5003 25.0834 10.6142 25.2996 10.8183C25.5158 11.0224 25.6459 11.3014 25.6634 11.5983C25.6808 11.8951 25.5842 12.1874 25.3933 12.4155C25.2025 12.6435 24.9318 12.79 24.6365 12.8251L24.4883 12.8333C24.191 12.833 23.905 12.7191 23.6887 12.515C23.4725 12.3109 23.3424 12.0319 23.325 11.735C23.3075 11.4382 23.4041 11.1459 23.595 10.9178C23.7858 10.6898 24.0565 10.5433 24.3518 10.5081L24.5 10.5ZM23.6203 6.71531C23.8212 6.9162 23.9419 7.18349 23.9597 7.46702C23.9775 7.75055 23.8913 8.03084 23.7172 8.25531L23.6122 8.37315C23.4022 8.58239 23.1205 8.70387 22.8242 8.71291C22.5279 8.72196 22.2393 8.6179 22.017 8.42186C21.7947 8.22582 21.6553 7.9525 21.6272 7.65743C21.5991 7.36235 21.6843 7.06764 21.8657 6.83315L21.9707 6.71648C22.1894 6.49776 22.4861 6.3749 22.7955 6.3749C23.1048 6.3749 23.4015 6.4966 23.6203 6.71531ZM18.6667 4.65498C18.9526 4.65505 19.2285 4.76013 19.4421 4.95025C19.6557 5.14037 19.792 5.40231 19.8252 5.68631L19.8333 5.83331C19.833 6.13067 19.7191 6.41668 19.515 6.63291C19.3109 6.84914 19.0319 6.97925 18.735 6.99668C18.4382 7.01411 18.1459 6.91753 17.9179 6.72667C17.6898 6.53582 17.5433 6.26509 17.5082 5.96981L17.5 5.82165C17.5 5.51223 17.6229 5.21548 17.8417 4.99669C18.0605 4.7779 18.3572 4.65498 18.6667 4.65498Z" fill="#000221"/>
</svg>
