<svg width="24" height="24" viewBox="0 0 24 24" fill="none" xmlns="http://www.w3.org/2000/svg">
<g clip-path="url(#clip0_285_5321)">
<path fill-rule="evenodd" clip-rule="evenodd" d="M12.06 5.93992C12.3409 6.22117 12.4987 6.60242 12.4987 6.99992C12.4987 7.39743 12.3409 7.77867 12.06 8.05992L8.12199 11.9999L12.062 15.9399C12.3351 16.223 12.4861 16.6019 12.4825 16.9952C12.4789 17.3885 12.321 17.7647 12.0427 18.0427C11.7645 18.3206 11.3882 18.4782 10.9949 18.4814C10.6016 18.4847 10.2228 18.3333 9.93999 18.0599L4.93999 13.0599C4.65909 12.7787 4.50131 12.3974 4.50131 11.9999C4.50131 11.6024 4.65909 11.2212 4.93999 10.9399L9.93999 5.93992C10.0793 5.80053 10.2447 5.68996 10.4267 5.61452C10.6088 5.53907 10.8039 5.50024 11.001 5.50024C11.1981 5.50024 11.3932 5.53907 11.5752 5.61452C11.7573 5.68996 11.9227 5.80053 12.062 5.93992H12.06ZM18.06 5.93992C18.3409 6.22117 18.4987 6.60242 18.4987 6.99992C18.4987 7.39743 18.3409 7.77867 18.06 8.05992L14.122 11.9999L18.062 15.9399C18.3351 16.223 18.4861 16.6019 18.4825 16.9952C18.4789 17.3885 18.321 17.7647 18.0427 18.0427C17.7645 18.3206 17.3882 18.4782 16.9949 18.4814C16.6016 18.4847 16.2228 18.3333 15.94 18.0599L10.94 13.0599C10.6591 12.7787 10.5013 12.3974 10.5013 11.9999C10.5013 11.6024 10.6591 11.2212 10.94 10.9399L15.94 5.93992C16.0793 5.80053 16.2447 5.68996 16.4267 5.61452C16.6088 5.53907 16.8039 5.50024 17.001 5.50024C17.1981 5.50024 17.3932 5.53907 17.5752 5.61452C17.7573 5.68996 17.9227 5.80053 18.062 5.93992H18.06Z" fill="#000221"/>
</g>
<defs>
<clipPath id="clip0_285_5321">
<rect width="24" height="24" fill="white"/>
</clipPath>
</defs>
</svg>
