<svg width="24" height="24" viewBox="0 0 24 24" fill="none" xmlns="http://www.w3.org/2000/svg">
<path d="M18.763 14.214C18.9752 14.0914 19.225 14.0509 19.465 14.1003C19.705 14.1498 19.9185 14.2856 20.065 14.482L20.129 14.58L21.526 17C22.271 18.29 21.394 19.893 19.941 19.995L19.794 20H13.414L13.829 20.414C14.0102 20.5935 14.116 20.8356 14.1247 21.0905C14.1333 21.3455 14.0442 21.5942 13.8755 21.7856C13.7069 21.977 13.4714 22.0967 13.2174 22.1202C12.9633 22.1437 12.7099 22.0692 12.509 21.912L12.414 21.828L10.299 19.713C10.22 19.6354 10.1544 19.5451 10.105 19.446C10.0189 19.2735 9.98451 19.0797 10.006 18.8881C10.0274 18.6965 10.1038 18.5152 10.226 18.366L10.262 18.326L12.414 16.172C12.5935 15.9907 12.8356 15.885 13.0905 15.8763C13.3455 15.8677 13.5942 15.9568 13.7856 16.1255C13.977 16.2941 14.0967 16.5296 14.1202 16.7836C14.1437 17.0377 14.0692 17.2911 13.912 17.492L13.829 17.586L13.414 18H19.794L18.397 15.58C18.2644 15.3503 18.2285 15.0774 18.2971 14.8212C18.3657 14.565 18.5333 14.3466 18.763 14.214ZM8.70299 9.625L9.47999 12.523C9.54868 12.7792 9.51278 13.0522 9.38019 13.2819C9.24761 13.5117 9.02919 13.6793 8.77299 13.748C8.51679 13.8167 8.2438 13.7808 8.01406 13.6482C7.78433 13.5156 7.61668 13.2972 7.54799 13.041L7.39599 12.475L4.20599 18H6.99999C7.2652 18 7.51956 18.1054 7.70709 18.2929C7.89463 18.4804 7.99999 18.7348 7.99999 19C7.99999 19.2652 7.89463 19.5196 7.70709 19.7071C7.51956 19.8946 7.2652 20 6.99999 20H4.20599C2.66599 20 1.70399 18.333 2.47399 17L5.66399 11.475L5.09799 11.626C4.84225 11.6932 4.57032 11.6563 4.34169 11.5235C4.11306 11.3907 3.94633 11.1727 3.87798 10.9173C3.80963 10.6619 3.84522 10.3898 3.97697 10.1605C4.10871 9.93128 4.32589 9.76354 4.58099 9.694L7.47799 8.918C7.60485 8.88397 7.73716 8.87527 7.86738 8.89238C7.99761 8.9095 8.12318 8.9521 8.23694 9.01775C8.35069 9.08341 8.4504 9.17083 8.53037 9.27502C8.61033 9.37921 8.66899 9.49814 8.70299 9.625ZM13.645 3.362L13.732 3.5L16.922 9.025L17.074 8.459C17.1406 8.21316 17.2985 8.002 17.5155 7.8686C17.7324 7.73521 17.9921 7.68963 18.2416 7.74118C18.491 7.79272 18.7114 7.9375 18.8577 8.14598C19.004 8.35445 19.0653 8.6109 19.029 8.863L19.006 8.977L18.229 11.875C18.1668 12.1102 18.0207 12.3145 17.8182 12.4493C17.6158 12.5841 17.371 12.6402 17.13 12.607L17.005 12.582L14.107 11.806C13.8595 11.7409 13.6464 11.5834 13.5116 11.366C13.3767 11.1486 13.3303 10.8877 13.3819 10.6371C13.4336 10.3865 13.5793 10.1652 13.7891 10.0188C13.999 9.87238 14.257 9.81197 14.51 9.85L14.624 9.874L15.19 10.025L12 4.5L10.603 6.92C10.4762 7.1426 10.2689 7.30808 10.0238 7.38231C9.77859 7.45654 9.51429 7.43386 9.28536 7.31895C9.05642 7.20403 8.88032 7.00565 8.79336 6.7647C8.7064 6.52376 8.71521 6.25863 8.81799 6.024L8.87099 5.92L10.268 3.5C10.983 2.262 12.693 2.173 13.55 3.235L13.645 3.362Z" fill="#000221"/>
</svg>
