<svg width="29" height="29" viewBox="0 0 29 29" fill="none" xmlns="http://www.w3.org/2000/svg">
<path fill-rule="evenodd" clip-rule="evenodd" d="M17.6344 3.50059C16.7599 2.7553 15.6484 2.34595 14.4994 2.34595C13.3504 2.34595 12.2389 2.7553 11.3644 3.50059L10.91 3.88726C10.5231 4.21733 10.0419 4.41691 9.53496 4.45759L8.93925 4.50592C7.79371 4.59708 6.71813 5.09341 5.90545 5.90588C5.09276 6.71835 4.59614 7.79379 4.50467 8.9393L4.45754 9.53501C4.4172 10.0418 4.21805 10.523 3.88842 10.9101L3.50054 11.3644C2.75493 12.239 2.34538 13.3507 2.34538 14.5C2.34538 15.6494 2.75493 16.7611 3.50054 17.6357L3.88721 18.09C4.21728 18.4769 4.41686 18.9581 4.45754 19.4651L4.50588 20.0608C4.59703 21.2063 5.09336 22.2819 5.90583 23.0946C6.7183 23.9073 7.79374 24.4039 8.93925 24.4954L9.53496 24.5425C10.0418 24.5828 10.523 24.782 10.91 25.1116L11.3644 25.4983C12.239 26.2439 13.3507 26.6535 14.5 26.6535C15.6493 26.6535 16.761 26.2439 17.6356 25.4983L18.09 25.1116C18.477 24.782 18.9582 24.5828 19.465 24.5425L20.0607 24.4942C21.2063 24.403 22.2819 23.9067 23.0946 23.0942C23.9072 22.2818 24.4039 21.2063 24.4953 20.0608L24.5413 19.4651C24.5819 18.9581 24.7815 18.4769 25.1116 18.09L25.4983 17.6345C26.2435 16.7599 26.6529 15.6485 26.6529 14.4994C26.6529 13.3504 26.2435 12.239 25.4983 11.3644L25.1116 10.9101C24.7815 10.5232 24.5819 10.042 24.5413 9.53501L24.4941 8.9393C24.403 7.79376 23.9066 6.71818 23.0942 5.9055C22.2817 5.09281 21.2063 4.59619 20.0607 4.50472L19.465 4.45759C18.9582 4.41725 18.477 4.2181 18.09 3.88847L17.6344 3.50059ZM12.9328 5.34088C13.37 4.9684 13.9256 4.76382 14.5 4.76382C15.0744 4.76382 15.63 4.9684 16.0672 5.34088L16.5227 5.72876C17.2968 6.38846 18.2591 6.78719 19.2729 6.86822L19.8686 6.91655C20.4411 6.96238 20.9785 7.21058 21.3846 7.61667C21.7907 8.02275 22.0389 8.56018 22.0847 9.13263L22.133 9.72834C22.2141 10.7421 22.6128 11.7045 23.2725 12.4785L23.6592 12.934C24.0317 13.3713 24.2362 13.9269 24.2362 14.5013C24.2362 15.0756 24.0317 15.6312 23.6592 16.0685L23.2725 16.524C22.6128 17.298 22.2141 18.2604 22.133 19.2742L22.0847 19.8699C22.0389 20.4423 21.7907 20.9798 21.3846 21.3858C20.9785 21.7919 20.4411 22.0401 19.8686 22.086L19.2729 22.1343C18.2591 22.2153 17.2968 22.6141 16.5227 23.2738L16.0672 23.6604C15.63 24.0329 15.0744 24.2375 14.5 24.2375C13.9256 24.2375 13.37 24.0329 12.9328 23.6604L12.4773 23.2738C11.7032 22.6141 10.7409 22.2153 9.72708 22.1343L9.13137 22.086C8.5587 22.0404 8.02099 21.7923 7.61466 21.3862C7.20833 20.9801 6.95996 20.4425 6.91408 19.8699L6.86575 19.2742C6.78507 18.2605 6.38676 17.2982 5.7275 16.524L5.34083 16.0685C4.96835 15.6312 4.76377 15.0756 4.76377 14.5013C4.76377 13.9269 4.96835 13.3713 5.34083 12.934L5.7275 12.4785C6.3872 11.7045 6.78594 10.7421 6.86696 9.72834L6.91529 9.13263C6.96085 8.55996 7.20893 8.02225 7.61504 7.61592C8.02115 7.20959 8.55873 6.96121 9.13137 6.91534L9.72708 6.86822C10.7409 6.78719 11.7032 6.38846 12.4773 5.72876L12.9328 5.34088ZM18.9793 11.7305C19.0947 11.6191 19.1868 11.4858 19.2501 11.3383C19.3134 11.1909 19.3467 11.0324 19.3481 10.8719C19.3495 10.7115 19.319 10.5524 19.2582 10.4039C19.1974 10.2554 19.1077 10.1204 18.9943 10.007C18.8808 9.89354 18.7459 9.80381 18.5974 9.74306C18.4489 9.6823 18.2898 9.65173 18.1293 9.65312C17.9689 9.65452 17.8103 9.68785 17.6629 9.75118C17.5155 9.81451 17.3822 9.90656 17.2707 10.022L10.0207 17.272C9.9053 17.3834 9.81325 17.5168 9.74992 17.6642C9.68659 17.8116 9.65326 17.9702 9.65186 18.1306C9.65047 18.291 9.68104 18.4502 9.7418 18.5987C9.80256 18.7472 9.89228 18.8821 10.0057 18.9955C10.1192 19.109 10.2541 19.1987 10.4026 19.2595C10.5511 19.3202 10.7102 19.3508 10.8707 19.3494C11.0311 19.348 11.1897 19.3147 11.3371 19.2513C11.4845 19.188 11.6178 19.096 11.7293 18.9806L18.9793 11.7305ZM13.2917 11.4792C13.2917 11.9599 13.1007 12.4209 12.7608 12.7608C12.4209 13.1008 11.9599 13.2917 11.4792 13.2917C10.9985 13.2917 10.5374 13.1008 10.1975 12.7608C9.85763 12.4209 9.66667 11.9599 9.66667 11.4792C9.66667 10.9985 9.85763 10.5375 10.1975 10.1976C10.5374 9.85768 10.9985 9.66672 11.4792 9.66672C11.9599 9.66672 12.4209 9.85768 12.7608 10.1976C13.1007 10.5375 13.2917 10.9985 13.2917 11.4792ZM17.5208 19.3334C18.0015 19.3334 18.4626 19.1424 18.8025 18.8025C19.1424 18.4626 19.3333 18.0016 19.3333 17.5209C19.3333 17.0402 19.1424 16.5792 18.8025 16.2393C18.4626 15.8993 18.0015 15.7084 17.5208 15.7084C17.0401 15.7084 16.5791 15.8993 16.2392 16.2393C15.8993 16.5792 15.7083 17.0402 15.7083 17.5209C15.7083 18.0016 15.8993 18.4626 16.2392 18.8025C16.5791 19.1424 17.0401 19.3334 17.5208 19.3334Z" fill="black"/>
</svg>
