<svg width="24" height="24" viewBox="0 0 24 24" fill="none" xmlns="http://www.w3.org/2000/svg">
<path d="M21.47 11.5801L15.05 5.17005C14.8864 5.00557 14.6708 4.90305 14.44 4.88005L5.08999 4.00005C4.94352 3.98658 4.79589 4.00559 4.65761 4.05571C4.51933 4.10584 4.3938 4.18585 4.28999 4.29005C4.18579 4.39387 4.10578 4.51939 4.05565 4.65767C4.00553 4.79595 3.98652 4.94358 3.99999 5.09005L4.87999 14.4401C4.90299 14.6709 5.0055 14.8865 5.16999 15.0501L11.58 21.4701C11.9238 21.8091 12.3871 21.9995 12.87 22.0001C13.3498 21.999 13.8099 21.8086 14.15 21.4701L21.47 14.1501C21.8101 13.8089 22.0011 13.3468 22.0011 12.8651C22.0011 12.3833 21.8101 11.9212 21.47 11.5801ZM11.56 11.5801C11.3503 11.79 11.083 11.9331 10.792 11.9911C10.501 12.0491 10.1993 12.0195 9.92508 11.9061C9.65088 11.7926 9.4165 11.6003 9.2516 11.3536C9.08669 11.1069 8.99867 10.8168 8.99867 10.5201C8.99867 10.2233 9.08669 9.93322 9.2516 9.6865C9.4165 9.43979 9.65088 9.24753 9.92508 9.13405C10.1993 9.02058 10.501 8.99098 10.792 9.04901C11.083 9.10704 11.3503 9.25009 11.56 9.46005C11.8372 9.73918 11.9928 10.1166 11.9928 10.5101C11.9928 10.9035 11.8372 11.2809 11.56 11.5601V11.5801Z" fill="black"/>
</svg>
