<svg width="24" height="24" viewBox="0 0 24 24" fill="none" xmlns="http://www.w3.org/2000/svg">
<path fill-rule="evenodd" clip-rule="evenodd" d="M20.485 3.515C20.155 3.185 19.55 2.858 18.875 2.61C18.0164 2.29664 17.1151 2.1159 16.202 2.074C14.412 1.989 12.274 2.419 10.232 3.994C10.2004 4.00576 10.1693 4.01911 10.139 4.034L7.31001 5.45C7.13006 5.53996 6.98143 5.68211 6.88353 5.85787C6.78564 6.03364 6.74303 6.23484 6.76128 6.4352C6.77954 6.63555 6.8578 6.82574 6.98585 6.98092C7.11389 7.1361 7.28577 7.24905 7.47901 7.305C6.8337 8.60028 6.43427 10.004 6.30101 11.445C6.22601 12.227 6.17201 13.375 6.11601 14.567C6.09301 15.069 6.06901 15.58 6.04301 16.074C5.42601 16.124 4.85501 16.183 4.38901 16.258C3.89901 16.338 3.34701 16.435 2.95101 16.761C2.78201 16.901 2.51501 17.198 2.51501 17.658C2.51501 18.581 3.34701 19.435 3.95701 20.044C4.56601 20.654 5.42001 21.486 6.34301 21.486C6.80301 21.486 7.10101 21.219 7.24001 21.05C7.56601 20.654 7.66301 20.103 7.74301 19.612C7.82618 19.0633 7.88756 18.5116 7.92701 17.958C8.42101 17.932 8.93101 17.908 9.43401 17.885C10.626 17.829 11.774 17.775 12.556 17.7C13.997 17.5667 15.4007 17.1673 16.696 16.522C16.752 16.7153 16.8649 16.8871 17.0201 17.0152C17.1753 17.1432 17.3655 17.2215 17.5658 17.2397C17.7662 17.258 17.9674 17.2154 18.1431 17.1175C18.3189 17.0196 18.4611 16.871 18.551 16.691L19.965 13.862C19.9806 13.8314 19.9946 13.8 20.007 13.768C21.581 11.727 22.011 9.589 21.926 7.799C21.8841 6.88596 21.7034 5.98462 21.39 5.126C21.142 4.451 20.816 3.845 20.485 3.515ZM9.43501 15.88C8.98301 15.901 8.51801 15.923 8.05201 15.947C8.07601 15.481 8.09801 15.016 8.11901 14.565C8.17201 13.428 8.22001 12.381 8.29201 11.633C8.49201 9.52501 9.34601 7.582 10.586 6.343C12.486 4.443 14.498 3.994 16.106 4.071C16.8157 4.10277 17.5164 4.24236 18.184 4.485C18.485 4.596 18.814 4.724 19.069 4.927L19.071 4.928L19.072 4.93C19.275 5.184 19.402 5.514 19.514 5.815C19.714 6.359 19.889 7.076 19.928 7.892C20.005 9.50101 19.556 11.514 17.657 13.413C16.417 14.653 14.475 15.507 12.367 15.707C11.617 15.779 10.571 15.827 9.43401 15.88H9.43501ZM4.96601 18.192C5.24201 18.155 5.56001 18.122 5.90801 18.09C5.87801 18.44 5.84401 18.757 5.80701 19.032C5.50658 18.7732 5.22481 18.4924 4.96601 18.192ZM14.828 9.171C15.1093 9.4524 15.4908 9.61054 15.8887 9.61063C16.2865 9.61073 16.6681 9.45277 16.9495 9.1715C17.2309 8.89024 17.389 8.50872 17.3891 8.11086C17.3892 7.713 17.2313 7.3314 16.95 7.05C16.6686 6.76861 16.287 6.61052 15.889 6.61052C15.4911 6.61052 15.1094 6.76861 14.828 7.05C14.5466 7.3314 14.3885 7.71305 14.3885 8.111C14.3885 8.50896 14.5466 8.89061 14.828 9.172V9.171Z" fill="#000221"/>
</svg>
