<svg width="24" height="24" viewBox="0 0 24 24" fill="none" xmlns="http://www.w3.org/2000/svg">
<g clip-path="url(#clip0_285_5320)">
<path fill-rule="evenodd" clip-rule="evenodd" d="M11.707 6.29303C11.8945 6.48056 11.9998 6.73487 11.9998 7.00003C11.9998 7.26519 11.8945 7.5195 11.707 7.70703L7.414 12L11.707 16.293C11.8892 16.4816 11.99 16.7342 11.9877 16.9964C11.9854 17.2586 11.8802 17.5094 11.6948 17.6948C11.5094 17.8803 11.2586 17.9854 10.9964 17.9877C10.7342 17.99 10.4816 17.8892 10.293 17.707L5.293 12.707C5.10553 12.5195 5.00021 12.2652 5.00021 12C5.00021 11.7349 5.10553 11.4806 5.293 11.293L10.293 6.29303C10.4805 6.10556 10.7348 6.00024 11 6.00024C11.2652 6.00024 11.5195 6.10556 11.707 6.29303ZM17.707 6.29303C17.8945 6.48056 17.9998 6.73487 17.9998 7.00003C17.9998 7.26519 17.8945 7.5195 17.707 7.70703L13.414 12L17.707 16.293C17.8892 16.4816 17.99 16.7342 17.9877 16.9964C17.9854 17.2586 17.8802 17.5094 17.6948 17.6948C17.5094 17.8803 17.2586 17.9854 16.9964 17.9877C16.7342 17.99 16.4816 17.8892 16.293 17.707L11.293 12.707C11.1055 12.5195 11.0002 12.2652 11.0002 12C11.0002 11.7349 11.1055 11.4806 11.293 11.293L16.293 6.29303C16.4805 6.10556 16.7348 6.00024 17 6.00024C17.2652 6.00024 17.5195 6.10556 17.707 6.29303Z" fill="#000221"/>
</g>
<defs>
<clipPath id="clip0_285_5320">
<rect width="24" height="24" fill="white"/>
</clipPath>
</defs>
</svg>
