<svg width="24" height="24" viewBox="0 0 24 24" fill="none" xmlns="http://www.w3.org/2000/svg">
<path fill-rule="evenodd" clip-rule="evenodd" d="M14.165 3.25001C13.203 1.58301 10.797 1.58301 9.835 3.25001L8.438 5.67001C8.24222 6.01434 8.19059 6.42214 8.29438 6.8044C8.39816 7.18667 8.64893 7.51236 8.99196 7.71042C9.33499 7.90847 9.74243 7.96281 10.1254 7.86156C10.5083 7.76032 10.8357 7.51172 11.036 7.17001L12 5.50001L14.22 9.34601C13.8696 9.37933 13.5421 9.53481 13.2948 9.78523C13.0475 10.0356 12.8961 10.3651 12.8671 10.7158C12.8382 11.0666 12.9335 11.4164 13.1364 11.704C13.3393 11.9916 13.6368 12.1987 13.977 12.289L16.875 13.065C17.0923 13.1248 17.3204 13.1342 17.5419 13.0924C17.7634 13.0506 17.9724 12.9588 18.153 12.824C18.427 12.622 18.621 12.344 18.713 12.004L19.489 9.10701C19.5803 8.7674 19.5493 8.40653 19.4015 8.08744C19.2537 7.76834 18.9986 7.51131 18.6805 7.36123C18.3625 7.21116 18.0019 7.17758 17.6616 7.26637C17.3214 7.35516 17.0231 7.56067 16.819 7.84701L14.165 3.25001ZM2.041 16.75L4.694 12.154C4.34362 12.1207 4.01611 11.9652 3.76879 11.7148C3.52147 11.4644 3.37009 11.1349 3.34112 10.7842C3.31216 10.4334 3.40747 10.0836 3.61037 9.79603C3.81326 9.50844 4.11083 9.30135 4.451 9.21101L7.349 8.43501C7.73313 8.33288 8.14208 8.38708 8.48635 8.58573C8.83062 8.78439 9.08219 9.11132 9.186 9.49501L9.963 12.394C10.0543 12.7336 10.0233 13.0945 9.87552 13.4136C9.72775 13.7327 9.47256 13.9897 9.15455 14.1398C8.83653 14.2899 8.47589 14.3234 8.13564 14.2346C7.79538 14.1459 7.49714 13.9403 7.293 13.654L5.072 17.5H7C7.39782 17.5 7.77936 17.658 8.06066 17.9393C8.34196 18.2207 8.5 18.6022 8.5 19C8.5 19.3978 8.34196 19.7794 8.06066 20.0607C7.77936 20.342 7.39782 20.5 7 20.5H4.206C2.281 20.5 1.079 18.417 2.041 16.75ZM20.562 14.33C20.3617 13.9883 20.0343 13.7397 19.6514 13.6384C19.2684 13.5372 18.861 13.5915 18.518 13.7896C18.1749 13.9876 17.9242 14.3133 17.8204 14.6956C17.7166 15.0779 17.7682 15.4857 17.964 15.83L18.928 17.5H14.488C14.6342 17.1799 14.6633 16.8186 14.5701 16.4793C14.4768 16.14 14.2673 15.8443 13.9781 15.6438C13.6888 15.4434 13.3384 15.351 12.9879 15.3828C12.6375 15.4147 12.3094 15.5687 12.061 15.818L9.947 17.932C9.671 18.204 9.5 18.582 9.5 19C9.5 19.412 9.66 19.786 9.947 20.069L12.061 22.182C12.3095 22.4306 12.6374 22.584 12.9875 22.6155C13.3376 22.6469 13.6876 22.5545 13.9765 22.3542C14.2653 22.1539 14.4747 21.8586 14.568 21.5197C14.6613 21.1808 14.6326 20.8199 14.487 20.5H19.794C21.719 20.5 22.922 18.417 21.959 16.75L20.562 14.33Z" fill="#000221"/>
</svg>
