<svg width="24" height="24" viewBox="0 0 24 24" fill="none" xmlns="http://www.w3.org/2000/svg">
<path d="M14 6.24C14.335 6.24 14.588 6.381 14.777 6.582C15.082 6.906 15.211 7.383 15.401 7.778C16.3745 9.80648 17.9123 11.5112 19.83 12.688L20.264 12.945C20.657 13.184 20.999 13.463 21 13.998C21.001 14.73 20.364 14.984 19.83 15.311C17.9123 16.4878 16.3745 18.1925 15.401 20.221C15.211 20.617 15.081 21.094 14.777 21.418C14.589 21.619 14.335 21.76 14 21.76C13.665 21.76 13.411 21.619 13.223 21.418C13.047 21.231 12.931 20.996 12.828 20.756L12.678 20.396C12.6531 20.3374 12.6267 20.2794 12.599 20.222C11.6255 18.1935 10.0877 16.4888 8.17 15.312L7.849 15.121C7.416 14.861 6.999 14.565 7 13.998C7.002 13.268 7.637 13.016 8.17 12.689C10.0877 11.5122 11.6255 9.80748 12.599 7.779C12.789 7.383 12.919 6.906 13.223 6.582C13.411 6.382 13.665 6.24 14 6.24ZM6.747 5.825C6.896 6.008 6.985 6.215 7.087 6.426C7.361 6.996 7.775 7.486 8.288 7.848L8.486 7.978C9.342 8.503 9.374 9.388 8.606 9.942L8.486 10.022C7.87987 10.394 7.39381 10.9329 7.086 11.574L6.972 11.816C6.875 12.016 6.762 12.207 6.566 12.334C6.251 12.536 5.749 12.536 5.434 12.334C5.169 12.164 5.044 11.846 4.914 11.574C4.60619 10.9329 4.12012 10.394 3.514 10.022C3.336 9.912 3.166 9.809 3.019 9.655C2.87512 9.46653 2.79726 9.23595 2.79744 8.99883C2.79762 8.76172 2.87583 8.53125 3.02 8.343C3.17 8.187 3.33 8.091 3.515 7.978C4.12076 7.60582 4.60646 7.067 4.914 6.426C5.018 6.21 5.101 6.012 5.254 5.826C5.45378 5.63145 5.72163 5.52258 6.0005 5.52258C6.27936 5.52258 6.54721 5.63145 6.747 5.826V5.825ZM10 2C10.2652 2 10.5196 2.10536 10.7071 2.29289C10.8946 2.48043 11 2.73478 11 3C11.2652 3 11.5196 3.10536 11.7071 3.29289C11.8946 3.48043 12 3.73478 12 4C12 4.26522 11.8946 4.51957 11.7071 4.70711C11.5196 4.89464 11.2652 5 11 5C11 5.26522 10.8946 5.51957 10.7071 5.70711C10.5196 5.89464 10.2652 6 10 6C9.73478 6 9.48043 5.89464 9.29289 5.70711C9.10536 5.51957 9 5.26522 9 5C8.73478 5 8.48043 4.89464 8.29289 4.70711C8.10536 4.51957 8 4.26522 8 4C8 3.73478 8.10536 3.48043 8.29289 3.29289C8.48043 3.10536 8.73478 3 9 3C9 2.73478 9.10536 2.48043 9.29289 2.29289C9.48043 2.10536 9.73478 2 10 2Z" fill="#000221"/>
</svg>
