<svg width="24" height="24" viewBox="0 0 24 24" fill="none" xmlns="http://www.w3.org/2000/svg">
<path d="M17 3C17.2817 2.99999 17.5603 3.05949 17.8174 3.1746C18.0745 3.28972 18.3044 3.45786 18.492 3.668L18.6 3.8L22.304 8.739C22.5657 9.08793 22.7062 9.51285 22.704 9.94902C22.7019 10.3852 22.5572 10.8087 22.292 11.155L22.184 11.285L12.925 21.469C12.7041 21.7122 12.3963 21.8586 12.0682 21.8765C11.7401 21.8945 11.4182 21.7826 11.172 21.565L11.075 21.469L1.816 11.284C1.52253 10.9612 1.34268 10.5512 1.30386 10.1166C1.26505 9.68208 1.3694 9.24674 1.601 8.877L1.696 8.739L5.4 3.8C5.56904 3.57454 5.78382 3.38734 6.03026 3.25068C6.2767 3.11402 6.54923 3.03098 6.83 3.007L7 3H17ZM13.69 5.863L14.328 8.757C14.3344 8.78619 14.3342 8.81645 14.3274 8.84555C14.3206 8.87466 14.3074 8.90186 14.2887 8.92517C14.27 8.94848 14.2463 8.96731 14.2193 8.98026C14.1924 8.99321 14.1629 8.99995 14.133 9H9.867C9.83711 8.99995 9.80762 8.99321 9.78068 8.98026C9.75374 8.96731 9.73005 8.94848 9.71134 8.92517C9.69263 8.90186 9.67939 8.87466 9.67258 8.84555C9.66578 8.81645 9.66558 8.78619 9.672 8.757L10.31 5.863C10.356 5.655 10.088 5.529 9.957 5.697L7.426 8.944C7.39774 8.98028 7.35783 9.00571 7.313 9.016L4.086 9.757C3.883 9.804 3.878 10.092 4.08 10.146L7.24 10.978C7.26616 10.9849 7.29064 10.9971 7.31195 11.0138C7.33326 11.0305 7.35097 11.0513 7.364 11.075L11.824 19.195C11.8412 19.2265 11.8666 19.2528 11.8975 19.2711C11.9284 19.2894 11.9636 19.2991 11.9995 19.2991C12.0354 19.2991 12.0706 19.2894 12.1015 19.2711C12.1324 19.2528 12.1578 19.2265 12.175 19.195L16.635 11.075C16.6481 11.0512 16.666 11.0303 16.6875 11.0136C16.709 10.9969 16.7337 10.9848 16.76 10.978L19.92 10.146C20.122 10.092 20.117 9.804 19.914 9.757L16.687 9.016C16.6422 9.00571 16.6023 8.98028 16.574 8.944L14.044 5.697C13.912 5.529 13.644 5.655 13.69 5.863ZM14.228 11C14.2558 11 14.2832 11.0058 14.3086 11.0171C14.334 11.0283 14.3568 11.0447 14.3755 11.0652C14.3942 11.0857 14.4085 11.1098 14.4174 11.1362C14.4262 11.1625 14.4295 11.1903 14.427 11.218L14.413 11.274L12.186 16.844C12.1732 16.8763 12.1522 16.9047 12.1251 16.9265C12.098 16.9482 12.0657 16.9625 12.0314 16.9679C11.9971 16.9734 11.9619 16.9698 11.9294 16.9575C11.8969 16.9453 11.8682 16.9248 11.846 16.898L11.814 16.843L9.587 11.274C9.57666 11.2482 9.5718 11.2206 9.57273 11.1928C9.57366 11.1651 9.58036 11.1378 9.5924 11.1128C9.60444 11.0878 9.62156 11.0655 9.64267 11.0475C9.66378 11.0294 9.68841 11.016 9.715 11.008L9.772 11H14.228Z" fill="#000221"/>
</svg>
