<svg width="24" height="24" viewBox="0 0 24 24" fill="none" xmlns="http://www.w3.org/2000/svg">
<g clip-path="url(#clip0_143_4409)">
<path d="M2.17 10.154C4.179 12.309 7.025 13.674 9.922 13.949C10.212 16.909 11.551 19.909 13.895 21.821C13.2803 21.939 12.6487 21.9987 12 22C6.477 22 2 17.523 2 12C2.00067 11.3687 2.05733 10.7533 2.17 10.154ZM21.868 10.37C21.9553 10.9007 21.9993 11.444 22 12C22.0004 13.8899 21.4653 15.7411 20.4566 17.3393C19.448 18.9375 18.0071 20.2172 16.301 21.03C13.818 19.71 12.275 16.873 11.931 13.97C15.255 13.767 19.065 12.499 21.868 10.37ZM16.005 2.834C18.4062 3.88779 20.2998 5.83921 21.281 8.271C18.838 10.406 15.115 11.755 11.888 11.97C11.9093 11.6987 11.942 11.43 11.986 11.164C12.52 7.965 13.676 4.758 16.006 2.834M12 2C12.616 2.00133 13.2167 2.05533 13.802 2.162C11.55 4.551 10.502 7.9 10.014 10.836C9.954 11.196 9.91167 11.562 9.887 11.934C7.13 11.61 4.48 10.109 2.887 7.876C3.68012 6.12397 4.96163 4.63781 6.57795 3.59562C8.19426 2.55343 10.0768 1.99943 12 2Z" fill="#000221"/>
</g>
<defs>
<clipPath id="clip0_143_4409">
<rect width="24" height="24" fill="white"/>
</clipPath>
</defs>
</svg>
