<svg width="24" height="24" viewBox="0 0 24 24" fill="none" xmlns="http://www.w3.org/2000/svg">
<path fill-rule="evenodd" clip-rule="evenodd" d="M17.11 3.00601C17.2593 3.02246 17.4031 3.07236 17.5305 3.152C17.6579 3.23163 17.7657 3.33896 17.846 3.46601C21.046 8.53301 20.563 13.912 17.89 17.3C16.555 18.991 14.68 20.171 12.493 20.52C10.585 20.823 8.49999 20.484 6.39899 19.384C6.20599 19.993 6.06899 20.584 5.98999 21.141C5.95156 21.4027 5.81104 21.6384 5.5992 21.7967C5.38735 21.955 5.12142 22.023 4.8596 21.9857C4.59778 21.9484 4.36139 21.8089 4.20217 21.5978C4.04294 21.3866 3.97384 21.121 4.00999 20.859C4.1489 19.9311 4.38417 19.0202 4.71199 18.141C3.17499 16.451 2.75499 14.313 2.94199 12.403C3.14799 10.296 4.10899 8.27501 5.35999 7.23201C7.03199 5.83901 8.78799 5.26701 10.312 4.98701C10.978 4.87174 11.6486 4.78466 12.322 4.72601C12.801 4.67801 13.29 4.64601 13.758 4.53001C14.4507 4.3625 15.1128 4.08714 15.72 3.71401C16.162 3.43801 16.539 2.94201 17.11 3.00601ZM7.14999 17.518C8.26199 15.251 10.08 13.078 12.447 11.894C12.5655 11.8359 12.6713 11.755 12.7584 11.6558C12.8455 11.5566 12.9121 11.4412 12.9543 11.3162C12.9966 11.1911 13.0137 11.059 13.0046 10.9273C12.9955 10.7956 12.9605 10.6671 12.9015 10.549C12.8425 10.431 12.7607 10.3257 12.6609 10.2394C12.561 10.1531 12.4451 10.0875 12.3197 10.0462C12.1943 10.0049 12.0621 9.98886 11.9305 9.99895C11.7989 10.009 11.6706 10.0451 11.553 10.105C8.94499 11.409 6.94699 13.664 5.64799 16.069C5.90618 16.4897 6.22646 16.869 6.59799 17.194C6.78332 17.3093 6.96665 17.4173 7.14999 17.518Z" fill="#000221"/>
</svg>
