<svg width="29" height="29" viewBox="0 0 29 29" fill="none" xmlns="http://www.w3.org/2000/svg">
<path d="M4.83334 3.02075C4.35264 3.02075 3.89162 3.21171 3.55171 3.55162C3.2118 3.89153 3.02084 4.35255 3.02084 4.83325C3.02084 5.31396 3.2118 5.77497 3.55171 6.11488C3.89162 6.45479 4.35264 6.64575 4.83334 6.64575H24.1667C24.6474 6.64575 25.1084 6.45479 25.4483 6.11488C25.7882 5.77497 25.9792 5.31396 25.9792 4.83325C25.9792 4.35255 25.7882 3.89153 25.4483 3.55162C25.1084 3.21171 24.6474 3.02075 24.1667 3.02075H4.83334ZM4.83334 9.06242C4.35264 9.06242 3.89162 9.25338 3.55171 9.59329C3.2118 9.9332 3.02084 10.3942 3.02084 10.8749C3.02084 11.3556 3.2118 11.8166 3.55171 12.1566C3.89162 12.4965 4.35264 12.6874 4.83334 12.6874H24.1667C24.6474 12.6874 25.1084 12.4965 25.4483 12.1566C25.7882 11.8166 25.9792 11.3556 25.9792 10.8749C25.9792 10.3942 25.7882 9.9332 25.4483 9.59329C25.1084 9.25338 24.6474 9.06242 24.1667 9.06242H4.83334ZM3.02084 16.9166C3.02084 16.4359 3.2118 15.9749 3.55171 15.635C3.89162 15.295 4.35264 15.1041 4.83334 15.1041H24.1667C24.6474 15.1041 25.1084 15.295 25.4483 15.635C25.7882 15.9749 25.9792 16.4359 25.9792 16.9166C25.9792 17.3973 25.7882 17.8583 25.4483 18.1982C25.1084 18.5381 24.6474 18.7291 24.1667 18.7291H4.83334C4.35264 18.7291 3.89162 18.5381 3.55171 18.1982C3.2118 17.8583 3.02084 17.3973 3.02084 16.9166ZM4.83334 21.1458C4.35264 21.1458 3.89162 21.3367 3.55171 21.6766C3.2118 22.0165 3.02084 22.4775 3.02084 22.9583C3.02084 23.439 3.2118 23.9 3.55171 24.2399C3.89162 24.5798 4.35264 24.7708 4.83334 24.7708H24.1667C24.6474 24.7708 25.1084 24.5798 25.4483 24.2399C25.7882 23.9 25.9792 23.439 25.9792 22.9583C25.9792 22.4775 25.7882 22.0165 25.4483 21.6766C25.1084 21.3367 24.6474 21.1458 24.1667 21.1458H4.83334Z" fill="black"/>
</svg>
