<svg width="24" height="24" viewBox="0 0 24 24" fill="none" xmlns="http://www.w3.org/2000/svg">
<g clip-path="url(#clip0_130_2410)">
<path d="M3.636 11.2931C3.44853 11.4806 3.34322 11.7349 3.34322 12.0001C3.34322 12.2652 3.44853 12.5195 3.636 12.7071L9.293 18.3641C9.4816 18.5462 9.73421 18.647 9.9964 18.6447C10.2586 18.6425 10.5094 18.5373 10.6948 18.3519C10.8802 18.1665 10.9854 17.9157 10.9877 17.6535C10.99 17.3913 10.8892 17.1387 10.707 16.9501L6.757 13.0001H20C20.2652 13.0001 20.5196 12.8947 20.7071 12.7072C20.8946 12.5196 21 12.2653 21 12.0001C21 11.7348 20.8946 11.4805 20.7071 11.293C20.5196 11.1054 20.2652 11.0001 20 11.0001H6.757L10.707 7.05006C10.8892 6.86146 10.99 6.60885 10.9877 6.34666C10.9854 6.08446 10.8802 5.83365 10.6948 5.64824C10.5094 5.46283 10.2586 5.35766 9.9964 5.35538C9.73421 5.35311 9.4816 5.4539 9.293 5.63606L3.636 11.2931Z" fill="#000221"/>
</g>
<defs>
<clipPath id="clip0_130_2410">
<rect width="24" height="24" fill="white"/>
</clipPath>
</defs>
</svg>
