<svg width="24" height="24" viewBox="0 0 24 24" fill="none" xmlns="http://www.w3.org/2000/svg">
<path d="M9.40201 3.59599C9.66742 3.35307 9.98215 3.17031 10.3247 3.06018C10.6672 2.95005 11.0295 2.91516 11.3867 2.95788C11.744 3.0006 12.0878 3.11994 12.3947 3.30772C12.7016 3.49551 12.9644 3.74734 13.165 4.04599L13.255 4.19199L13.945 5.38899C13.9923 5.32365 14.0423 5.26032 14.095 5.19899C14.669 4.52299 15.499 4.09699 16.432 3.93999C17.212 3.80999 17.816 4.30999 18.042 4.87699L18.083 4.99099C18.288 5.65899 18.661 6.47099 19.133 7.33899C20.711 10.252 20.488 13.928 18.373 16.376C17.953 18.287 16.828 20.018 14.973 21.089C13.3571 22.0216 11.437 22.2743 9.63481 21.7914C7.83267 21.3085 6.29609 20.1296 5.36301 18.514C4.64146 17.2635 3.90944 16.0192 3.16701 14.781C2.98265 14.4741 2.86672 14.131 2.82714 13.7752C2.78756 13.4194 2.82526 13.0592 2.93767 12.7193C3.05009 12.3795 3.23456 12.0678 3.47848 11.8058C3.7224 11.5437 4.02002 11.3374 4.35101 11.201L4.50201 11.145L3.72901 9.80499C3.53998 9.47801 3.42749 9.11245 3.39999 8.73577C3.3725 8.35909 3.4307 7.98107 3.57024 7.63011C3.70978 7.27915 3.92702 6.96436 4.20565 6.7094C4.48429 6.45443 4.81707 6.26591 5.17901 6.15799C4.9528 5.60682 4.93087 4.99299 5.11715 4.42708C5.30344 3.86117 5.68571 3.3804 6.19508 3.07137C6.70445 2.76235 7.30744 2.64539 7.8954 2.74158C8.48337 2.83776 9.01766 3.14076 9.40201 3.59599ZM5.64401 8.11999C5.52917 8.18629 5.44538 8.2955 5.41106 8.42359C5.37674 8.55167 5.39471 8.68815 5.46101 8.80299L8.71101 14.433C8.77771 14.5468 8.82124 14.6726 8.83911 14.8033C8.85697 14.9339 8.84881 15.0668 8.81511 15.1943C8.7814 15.3218 8.7228 15.4414 8.64269 15.5462C8.56258 15.6509 8.46255 15.7388 8.34833 15.8048C8.23412 15.8707 8.108 15.9134 7.97722 15.9304C7.84644 15.9474 7.71359 15.9383 7.58631 15.9038C7.45904 15.8692 7.33986 15.8099 7.23563 15.7291C7.1314 15.6483 7.04419 15.5476 6.97901 15.433L5.72201 13.257C5.68957 13.2018 5.64659 13.1536 5.59551 13.1151C5.54444 13.0765 5.48627 13.0484 5.42434 13.0323C5.3624 13.0163 5.29791 13.0126 5.23454 13.0214C5.17117 13.0303 5.11016 13.0515 5.05501 13.084C4.99985 13.1164 4.95163 13.1594 4.91308 13.2105C4.87454 13.2616 4.84643 13.3197 4.83037 13.3817C4.8143 13.4436 4.81059 13.5081 4.81946 13.5715C4.82832 13.6348 4.84957 13.6958 4.88201 13.751C5.63201 15.001 6.36601 16.251 7.09501 17.513C7.76287 18.6695 8.8628 19.5134 10.1528 19.8591C11.4429 20.2047 12.8174 20.0237 13.974 19.356C15.289 18.596 16.128 17.319 16.436 15.876L16.461 15.296C16.511 13.967 16.468 12.792 15.776 11.516C15.364 10.756 14.99 9.97899 14.724 9.25099C14.264 9.41899 13.981 9.69999 13.846 9.98899C13.571 10.579 13.846 11.205 14.146 11.725C14.2136 11.8376 14.2584 11.9624 14.2778 12.0923C14.2972 12.2223 14.2908 12.3547 14.259 12.4822C14.2272 12.6096 14.1706 12.7296 14.0925 12.8351C14.0143 12.9407 13.9161 13.0299 13.8035 13.0975C13.6909 13.1651 13.5661 13.2099 13.4362 13.2293C13.3062 13.2487 13.1738 13.2423 13.0463 13.2105C12.9189 13.1787 12.7989 13.1221 12.6934 13.0439C12.5878 12.9658 12.4986 12.8676 12.431 12.755C12.074 12.182 11.731 11.598 11.394 11.011L10.393 9.24299C10.2265 8.94898 10.0589 8.65564 9.89001 8.36299C9.81284 8.26256 9.70043 8.19516 9.57549 8.17441C9.45055 8.15365 9.32239 8.18108 9.21689 8.25116C9.11139 8.32124 9.03642 8.42874 9.00711 8.55196C8.97781 8.67517 8.99635 8.80492 9.05901 8.91499L11.309 12.812C11.4395 13.0415 11.4739 13.3134 11.4048 13.5683C11.3356 13.8231 11.1684 14.0402 10.9397 14.1723C10.711 14.3043 10.4394 14.3405 10.1841 14.273C9.92879 14.2055 9.71056 14.0398 9.57701 13.812L8.76901 12.432L7.13901 9.68999C6.86701 9.23199 6.59634 8.76965 6.32701 8.30299C6.2607 8.18815 6.15149 8.10436 6.02341 8.07004C5.89532 8.03572 5.75885 8.05369 5.64401 8.11999ZM16.323 6.02699C16.0521 6.11905 15.8096 6.27958 15.619 6.49299C15.4574 6.68261 15.3589 6.91782 15.337 7.16599C15.916 7.27299 16.337 7.73399 16.485 8.21499C16.69 8.88299 17.063 9.69399 17.535 10.563C17.778 11.013 17.979 11.483 18.137 11.963C18.2508 10.6905 17.9853 9.41281 17.374 8.29099C16.962 7.53199 16.588 6.75499 16.323 6.02699ZM10.84 5.00699C10.7253 5.07312 10.6415 5.18207 10.607 5.30993C10.5725 5.43779 10.5901 5.57412 10.656 5.68899L12.348 8.61099C12.5103 8.38857 12.6998 8.18734 12.912 8.01199L13.075 7.88499L11.523 5.18999C11.4567 5.07515 11.3475 4.99136 11.2194 4.95704C11.0913 4.92272 10.9548 4.94069 10.84 5.00699ZM7.24201 4.77499C7.12717 4.84129 7.04338 4.9505 7.00906 5.07859C6.97474 5.20667 6.99271 5.34315 7.05901 5.45799L7.83101 6.79599C8.08258 6.5721 8.3768 6.40135 8.69601 6.29399L7.92501 4.95999C7.8587 4.84515 7.74949 4.76136 7.62141 4.72704C7.49332 4.69272 7.35685 4.71069 7.24201 4.77699V4.77499ZM21.365 3.99699C21.4881 4.20902 21.529 4.45889 21.48 4.69911C21.431 4.93934 21.2954 5.15317 21.099 5.29999L21.002 5.36399L20.162 5.85099C19.9412 5.98162 19.6787 6.02241 19.4286 5.9649C19.1786 5.9074 18.9603 5.75601 18.8187 5.54204C18.6772 5.32807 18.6233 5.06789 18.6682 4.81531C18.7131 4.56273 18.8534 4.33706 19.06 4.18499L19.158 4.12099L19.998 3.63399C20.1116 3.56805 20.2371 3.52513 20.3672 3.50769C20.4974 3.49025 20.6298 3.49862 20.7567 3.53233C20.8836 3.56603 21.0027 3.62442 21.1071 3.70415C21.2114 3.78387 21.2991 3.88338 21.365 3.99699ZM18.633 1.08699C18.8697 1.15034 19.0748 1.29836 19.2096 1.50297C19.3443 1.70759 19.3993 1.95454 19.364 2.19699L19.34 2.31199L19.211 2.79499C19.1442 3.04048 18.9863 3.25127 18.7696 3.38444C18.5528 3.51762 18.2934 3.56316 18.0442 3.5118C17.795 3.46043 17.5748 3.31602 17.4284 3.10797C17.2819 2.89993 17.2203 2.64388 17.256 2.39199L17.279 2.27799L17.409 1.79499C17.4777 1.53899 17.6452 1.32073 17.8747 1.18816C18.1042 1.0556 18.3769 1.01957 18.633 1.08799V1.08699ZM14.986 1.08699C15.2228 1.02361 15.4746 1.0494 15.6936 1.15946C15.9126 1.26951 16.0836 1.45618 16.174 1.68399L16.211 1.79399L16.341 2.27799C16.4088 2.52507 16.3792 2.78876 16.2583 3.01464C16.1373 3.24053 15.9343 3.41138 15.6911 3.49194C15.4479 3.5725 15.183 3.55663 14.9511 3.4476C14.7193 3.33857 14.5381 3.1447 14.445 2.90599L14.409 2.79599L14.279 2.31199C14.2106 2.05593 14.2466 1.78317 14.3792 1.55366C14.5118 1.32415 14.73 1.15666 14.986 1.08799V1.08699Z" fill="#000221"/>
</svg>
