<svg width="24" height="24" viewBox="0 0 24 24" fill="none" xmlns="http://www.w3.org/2000/svg">
<path d="M20.25 3.5321C20.4281 3.48605 20.6154 3.48999 20.7913 3.5435C20.9673 3.597 21.1251 3.69799 21.2473 3.83536C21.3696 3.97273 21.4516 4.14115 21.4844 4.32212C21.5172 4.50309 21.4994 4.68958 21.433 4.8611L15.433 20.3611C15.3737 20.5146 15.2773 20.6511 15.1526 20.7585C15.0278 20.8658 14.8785 20.9407 14.7179 20.9765C14.5572 21.0124 14.3902 21.008 14.2317 20.9637C14.0731 20.9195 13.9279 20.8369 13.809 20.7231L10.427 17.4881L9.22401 18.6901C8.58801 19.3261 7.50001 18.8761 7.50001 17.9761V14.6881L2.30901 9.7231C2.18021 9.59987 2.08669 9.44447 2.03813 9.27296C1.98957 9.10146 1.98773 8.92009 2.03281 8.74764C2.07789 8.57518 2.16824 8.41791 2.29451 8.29211C2.42079 8.1663 2.57839 8.07653 2.75101 8.0321L20.25 3.5321ZM18.136 7.8371L10.138 14.4441L14.108 18.2421L18.136 7.8371ZM16.558 6.5471L4.99101 9.5201L8.68301 13.0501L16.558 6.5451V6.5471Z" fill="#000221"/>
</svg>
