<svg width="24" height="24" viewBox="0 0 24 24" fill="none" xmlns="http://www.w3.org/2000/svg">
<path fill-rule="evenodd" clip-rule="evenodd" d="M12 4.33894C14.072 2.65294 16.534 2.65894 18.494 3.80094C20.589 5.02194 22.063 7.50094 21.998 10.3929C21.919 13.9129 19.246 17.0269 14.675 19.8169L13.954 20.2479C13.753 20.3669 13.53 20.4939 13.312 20.6039C12.907 20.8099 12.462 20.9999 12 20.9999C11.538 20.9999 11.093 20.8099 10.687 20.6039C10.5408 20.5292 10.3964 20.4508 10.254 20.3689L9.68101 20.0309C4.89301 17.1869 2.08301 14.0019 2.00201 10.3929C1.93701 7.50094 3.41101 5.02294 5.50601 3.80094C7.46601 2.65994 9.92801 2.65194 12 4.33894ZM6.51301 5.52994C5.06901 6.37194 3.95301 8.15894 4.00201 10.3499C4.05801 12.8609 6.04201 15.5439 10.702 18.3129C11.004 18.4919 11.306 18.6759 11.593 18.8219C11.929 18.9919 12.071 18.9919 12.407 18.8219C12.598 18.7249 12.797 18.6099 12.997 18.4919L13.298 18.3119C15.649 16.9159 17.318 15.5419 18.404 14.1989C17.2959 14.1804 16.2384 13.7318 15.455 12.9479L14.265 11.7579L13.503 12.5199C12.7446 13.2783 11.716 13.7044 10.6435 13.7044C9.57099 13.7044 8.5424 13.2783 7.78401 12.5199C7.52152 12.2575 7.31331 11.946 7.17125 11.603C7.02919 11.2601 6.95607 10.8926 6.95607 10.5214C6.95607 10.1503 7.02919 9.78274 7.17125 9.43984C7.31331 9.09693 7.52152 8.78537 7.78401 8.52294L10.555 5.74994C9.19901 4.75394 7.72501 4.82494 6.51301 5.52994ZM13.011 6.10994L12.82 6.29594C12.7883 6.33936 12.7532 6.38016 12.715 6.41794L9.19801 9.93794C9.04314 10.0928 8.95615 10.3029 8.95615 10.5219C8.95615 10.741 9.04314 10.951 9.19801 11.1059C9.5813 11.4891 10.1011 11.7043 10.643 11.7043C11.1849 11.7043 11.7047 11.4891 12.088 11.1059L12.954 10.2399C13.1262 10.0678 13.3306 9.9312 13.5555 9.83803C13.7804 9.74485 14.0215 9.69689 14.265 9.69689C14.5085 9.69689 14.7496 9.74485 14.9745 9.83803C15.1995 9.9312 15.4038 10.0678 15.576 10.2399L16.869 11.5339C17.2423 11.9072 17.7337 12.1391 18.2591 12.1898C18.7845 12.2405 19.3113 12.1069 19.749 11.8119C19.9057 11.3186 19.989 10.8309 19.999 10.3489C20.048 8.15894 18.931 6.37194 17.487 5.53094C16.145 4.74894 14.48 4.74694 13.011 6.10994Z" fill="#000221"/>
</svg>
