<svg width="24" height="24" viewBox="0 0 24 24" fill="none" xmlns="http://www.w3.org/2000/svg">
<path fill-rule="evenodd" clip-rule="evenodd" d="M21.998 10.3929C22.063 7.50094 20.589 5.02294 18.494 3.80094C16.534 2.65994 14.072 2.65294 12 4.33894C9.92801 2.65294 7.46601 2.65894 5.50601 3.80094C3.41101 5.02194 1.93701 7.50094 2.00201 10.3929C2.08301 14.0029 4.89201 17.1869 9.68101 20.0309C10.012 20.2289 10.343 20.4289 10.687 20.6039C11.093 20.8099 11.537 20.9999 12 20.9999C12.463 20.9999 12.907 20.8099 13.313 20.6039C13.657 20.4289 13.988 20.2289 14.319 20.0309C19.107 17.1869 21.917 14.0019 21.998 10.3929ZM12.843 6.27194C14.351 4.74594 16.093 4.71794 17.487 5.52994C18.931 6.37094 20.047 8.15794 19.998 10.3479C19.9887 10.8299 19.9053 11.3176 19.748 11.8109C19.3103 12.1057 18.7838 12.2391 18.2586 12.1884C17.7334 12.1377 17.2422 11.906 16.869 11.5329L15.576 10.2389C15.4038 10.0668 15.1995 9.9302 14.9745 9.83703C14.7496 9.74385 14.5085 9.69589 14.265 9.69589C14.0215 9.69589 13.7804 9.74385 13.5555 9.83703C13.3306 9.9302 13.1262 10.0668 12.954 10.2389L12.089 11.1049C11.7057 11.4881 11.1859 11.7033 10.644 11.7033C10.1021 11.7033 9.5823 11.4881 9.19901 11.1049C9.12211 11.0283 9.06108 10.9372 9.01941 10.837C8.97774 10.7367 8.95624 10.6292 8.95615 10.5206C8.95605 10.4121 8.97737 10.3045 9.01887 10.2042C9.06037 10.1039 9.12124 10.0127 9.19801 9.93594L12.715 6.41694C12.7529 6.37912 12.7877 6.33833 12.819 6.29494L12.843 6.27194Z" fill="#000221"/>
</svg>
