<svg width="24" height="24" viewBox="0 0 24 24" fill="none" xmlns="http://www.w3.org/2000/svg">
<g clip-path="url(#clip0_130_2408)">
<path d="M15.06 5.28301L20.717 10.94C20.9979 11.2213 21.1557 11.6025 21.1557 12C21.1557 12.3975 20.9979 12.7788 20.717 13.06L15.061 18.718C14.7796 18.9994 14.398 19.1575 14 19.1575C13.602 19.1575 13.2204 18.9994 12.939 18.718C12.6576 18.4366 12.4995 18.055 12.4995 17.657C12.4995 17.2591 12.6576 16.8774 12.939 16.596L16.035 13.5H4.5C4.10218 13.5 3.72064 13.342 3.43934 13.0607C3.15804 12.7794 3 12.3978 3 12C3 11.6022 3.15804 11.2207 3.43934 10.9394C3.72064 10.658 4.10218 10.5 4.5 10.5H16.035L12.94 7.40401C12.6587 7.12262 12.5008 6.74102 12.5009 6.34316C12.501 5.9453 12.6591 5.56377 12.9405 5.28251C13.2219 5.00125 13.6035 4.84329 14.0014 4.84338C14.3992 4.84348 14.7807 5.00162 15.062 5.28301H15.06Z" fill="#000221"/>
</g>
<defs>
<clipPath id="clip0_130_2408">
<rect width="24" height="24" fill="white"/>
</clipPath>
</defs>
</svg>
